<svg width="19" height="19" viewBox="0 0 19 19" fill="none" xmlns="http://www.w3.org/2000/svg">
<path d="M15.6514 17.7774L12.1291 14.2898C11.9701 14.1323 11.8811 13.9183 11.88 13.6933L11.8771 13.1202C10.6411 14.0969 9.08325 14.6813 7.38539 14.6899C3.34638 14.7102 0.0572031 11.4535 0.0368481 7.41377C0.0164931 3.37407 3.27269 0.0843398 7.31169 0.0639883C11.3507 0.0436367 14.6399 3.30039 14.6602 7.34009C14.6688 9.03824 14.1002 10.6022 13.1362 11.8482L13.7092 11.8453C13.9342 11.8441 14.149 11.9309 14.308 12.0884L17.8304 15.576C18.1625 15.9048 18.1652 16.4392 17.8364 16.7679L16.8466 17.7679C16.5178 18.1 15.9835 18.1027 15.6514 17.7774ZM11.848 7.35426C11.8355 4.86856 9.81465 2.86412 7.32587 2.87666C4.84059 2.88918 2.8365 4.91039 2.84904 7.3996C2.86156 9.8853 4.88243 11.8897 7.37122 11.8772C9.85649 11.8647 11.8606 9.84347 11.848 7.35426Z" fill="white"/>
</svg>
