<svg width="30" height="30" viewBox="0 0 30 30" fill="none" xmlns="http://www.w3.org/2000/svg">
<path d="M30 15C30 6.71371 23.2863 0 15 0C6.71371 0 0 6.71371 0 15C0 23.2863 6.71371 30 15 30C23.2863 30 30 23.2863 30 15ZM2.90323 15C2.90323 8.31653 8.31653 2.90323 15 2.90323C21.6835 2.90323 27.0968 8.31653 27.0968 15C27.0968 21.6835 21.6835 27.0968 15 27.0968C8.31653 27.0968 2.90323 21.6835 2.90323 15ZM7.25806 16.2097V13.7903C7.25806 13.3911 7.58468 13.0645 7.98387 13.0645L15 13.0645V9.0121C15 8.36492 15.7802 8.04435 16.2399 8.49798L22.2278 14.4859C22.5121 14.7702 22.5121 15.2298 22.2278 15.5141L16.2399 21.502C15.7802 21.9617 15 21.6351 15 20.9879V16.9355H7.98387C7.58468 16.9355 7.25806 16.6089 7.25806 16.2097Z" fill="black"/>
</svg>
