<svg width="13" height="13" viewBox="0 0 13 13" fill="none" xmlns="http://www.w3.org/2000/svg">
<path d="M12.1855 13C5.25352 13.0098 -0.00740807 7.68584 7.8304e-06 0.814539C7.8304e-06 0.365808 0.363777 0 0.812508 0H2.95699C3.35964 0 3.70169 0.295855 3.76082 0.694142C3.90253 1.64872 4.18045 2.57804 4.58614 3.4537L4.66964 3.63391C4.78573 3.88449 4.70704 4.18221 4.4823 4.34271C3.81818 4.81698 3.56437 5.77164 4.08175 6.51654C4.73101 7.45131 5.54942 8.26954 6.48397 8.9185C7.22883 9.43573 8.18334 9.18196 8.6576 8.51796C8.8182 8.2931 9.11609 8.21437 9.36682 8.33052L9.54621 8.41362C10.4219 8.81928 11.3513 9.09722 12.306 9.2389C12.7043 9.29801 13 9.64005 13 10.0427V12.1875C13 12.6362 12.6353 13 12.1866 13L12.1855 13Z" fill="#303030"/>
</svg>
