<svg width="15" height="15" viewBox="0 0 15 15" fill="none" xmlns="http://www.w3.org/2000/svg">
<path d="M13.7211 15L8.55928 9.83731C6.26305 11.4698 3.09893 11.0705 1.28029 8.91869C-0.538363 6.7669 -0.404825 3.58048 1.58749 1.58839C3.57928 -0.404564 6.766 -0.53868 8.9182 1.27987C11.0704 3.09843 11.4699 6.26285 9.8373 8.55929L14.9991 13.722L13.722 14.9991L13.7211 15ZM5.41886 1.80695C3.70612 1.80657 2.22848 3.00883 1.88055 4.68586C1.53263 6.36288 2.41004 8.05374 3.98158 8.73472C5.55311 9.4157 7.38683 8.89964 8.37253 7.49898C9.35824 6.09831 9.225 4.19802 8.05349 2.94861L8.59992 3.49053L7.98394 2.87636L7.9731 2.86552C7.29732 2.18557 6.37751 1.80437 5.41886 1.80695Z" fill="white"/>
</svg>
