<svg width="19" height="22" viewBox="0 0 19 22" fill="none" xmlns="http://www.w3.org/2000/svg">
<path fill-rule="evenodd" clip-rule="evenodd" d="M5.61417 0.535993C5.78677 0.206477 6.12802 0 6.5 0H15.5C15.8828 0 16.232 0.218554 16.3994 0.562862C16.5667 0.907171 16.5228 1.3168 16.2863 1.61782L12.0575 7H17.5C17.8972 7 18.2567 7.23508 18.416 7.59893C18.5754 7.96278 18.5042 8.38642 18.2348 8.67828L6.2348 21.6783C5.92333 22.0157 5.42207 22.0976 5.01937 21.8769C4.61668 21.6562 4.41606 21.1896 4.53293 20.7455L6.7028 12.5H1C0.650064 12.5 0.325585 12.3171 0.144428 12.0177C-0.0367279 11.7183 -0.0482039 11.346 0.114169 11.036L5.61417 0.535993ZM7.10507 2L2.65269 10.5H8C8.3101 10.5 8.60266 10.6439 8.79199 10.8895C8.98132 11.1351 9.04599 11.4546 8.96708 11.7545L7.48909 17.3708L15.216 9H10C9.61718 9 9.26795 8.78145 9.10061 8.43714C8.93326 8.09283 8.97717 7.6832 9.21368 7.38218L13.4425 2H7.10507Z" fill="black" fill-opacity="0.85"/>
</svg>
