<svg width="22" height="22" viewBox="0 0 22 22" fill="none" xmlns="http://www.w3.org/2000/svg">
<path fill-rule="evenodd" clip-rule="evenodd" d="M12 1C12 0.447715 11.5523 0 11 0C10.4477 0 10 0.447715 10 1V1.55199C5.55151 2.01721 2.01721 5.55151 1.55199 10H1C0.447715 10 0 10.4477 0 11C0 11.5523 0.447715 12 1 12H1.55199C2.01721 16.4485 5.55151 19.9828 10 20.448V21C10 21.5523 10.4477 22 11 22C11.5523 22 12 21.5523 12 21V20.448C16.4485 19.9828 19.9828 16.4485 20.448 12H21C21.5523 12 22 11.5523 22 11C22 10.4477 21.5523 10 21 10H20.448C19.9828 5.55151 16.4485 2.01721 12 1.55199V1ZM10 3.56606C6.65735 4.01125 4.01125 6.65735 3.56606 10H6.09993C6.49742 8.04031 8.04031 6.49742 10 6.09993V3.56606ZM12 6.09993V3.56606C15.3427 4.01125 17.9887 6.65735 18.4339 10H15.9001C15.5026 8.04031 13.9597 6.49742 12 6.09993ZM10 8.1705C9.14717 8.47162 8.47162 9.14717 8.1705 10H10V8.1705ZM12 10V8.1705C12.8528 8.47162 13.5284 9.14717 13.8295 10H12ZM10 12H8.1705C8.47162 12.8528 9.14717 13.5284 10 13.8295V12ZM12 13.8295V12H13.8295C13.5284 12.8528 12.8528 13.5284 12 13.8295ZM10 15.9001C8.04031 15.5026 6.49742 13.9597 6.09993 12H3.56606C4.01125 15.3427 6.65735 17.9887 10 18.4339V15.9001ZM12 18.4339V15.9001C13.9597 15.5026 15.5026 13.9597 15.9001 12H18.4339C17.9887 15.3427 15.3427 17.9887 12 18.4339Z" fill="black" fill-opacity="0.85"/>
</svg>
