<svg width="18" height="22" viewBox="0 0 18 22" fill="none" xmlns="http://www.w3.org/2000/svg">
<path d="M9 9C9.55229 9 10 9.44771 10 10V13C10 13.5523 9.55229 14 9 14H6C5.44772 14 5 13.5523 5 13C5 12.4477 5.44772 12 6 12H8V10C8 9.44771 8.44771 9 9 9Z" fill="black" fill-opacity="0.85"/>
<path fill-rule="evenodd" clip-rule="evenodd" d="M7 0C6.44772 0 6 0.447715 6 1C6 1.55228 6.44772 2 7 2H8V4.05493C3.50005 4.55237 0 8.36745 0 13C0 17.9706 4.02944 22 9 22C13.9706 22 18 17.9706 18 13C18 10.7474 17.1724 8.68806 15.8047 7.10948L16.7071 6.20711C17.0976 5.81658 17.0976 5.18342 16.7071 4.79289C16.3166 4.40237 15.6834 4.40237 15.2929 4.79289L14.3349 5.75089C13.0947 4.83666 11.6115 4.23307 10 4.05493V2H11C11.5523 2 12 1.55228 12 1C12 0.447715 11.5523 0 11 0H7ZM2 13C2 9.13401 5.13401 6 9 6C12.866 6 16 9.13401 16 13C16 16.866 12.866 20 9 20C5.13401 20 2 16.866 2 13Z" fill="black" fill-opacity="0.85"/>
</svg>
