<svg class="mp-about__slide-map" viewBox="0 0 415 281" fill="none" xmlns="http://www.w3.org/2000/svg">
    <g>
        <path class="region" fill-rule="evenodd" clip-rule="evenodd" d="M267.707 220.171L269.266 223.575L269.576 225.127L272.651 225.99L270.941 228.993L268.631 228.551L268.178 230.595L264.398 230.118L261.335 233.651H258.288L251.823 236.786L251.016 238.004L250.892 240.468L246.615 241.304L242.378 245.117L242.984 248.056L245.643 248.98L247.056 248.372L248.818 246.603L253.543 246.479L260.514 252.677L263.083 252.784L265.011 252.3L270.49 256.125L272.028 261.707L271.533 264.691L269.153 266.055L269.054 267.556L269.412 270.792L266.929 273.167L265.931 274.97L267.4 276.64L271.306 277.216L273.037 279.763L276.936 281L277.705 278.688L279.438 280.694L282.581 279.747L286.388 276.489L288.974 273.894L291.964 267.77L299.114 264.126L302.458 264.347L304.273 262.158L307.366 264.691L308.329 263.635L308.68 260.822L310.591 259.742L311.651 258.204L313.969 257.761L314.856 254.085L317.992 251.421L320.992 251.171L325.904 255.872L329.578 255.66L331.351 252.932L335.555 254.691L338.406 252.818L340.677 252.027L338.528 248.358L339.964 243.914L341.465 242.03L344.822 241.715L344.135 239.821L338.191 239.38L331.133 238.826L328.904 244.245L325.994 242.385L324.625 240.522L322.002 243.894L318.425 245.632L314.752 248.367L309.476 246.131L306.658 245.656L303.771 242.504L305.974 239.245L304.083 235.765L300.085 234.39L299.207 232.735H296.33V229.535L293.391 228.443L291.581 226.399L289.119 225.81L288.096 223.302L284.318 222.688L282.546 226.481L280.707 225.249L280.478 221.919L279.287 221.068L277.435 223.626L272.92 219.458L270.568 217.098L267.707 220.171Z" />
        <path class="region-icon" fill-rule="evenodd" clip-rule="evenodd" d="M283.5 250.5V257H285.5V250.5H292V248.5H285.5V242H283.5V248.5H277V250.5H283.5Z" />
    </g>
    <g>
        <path class="region" fill-rule="evenodd" clip-rule="evenodd" d="M55.3805 57.8207L57.739 56.4846L61.6341 60.0577L59.9485 62.9444L60.6151 64.5756L62.9011 63.9878L65.7453 67.5743L69.4853 66.6937L73.2659 67.597L74.4736 67.0585L74.5212 65.7114L73.0562 64.776L74.0019 63.389L74.398 61.1966L77.6733 60.9571V58.8116L79.2132 59.0496L79.1095 57.6868L80.7467 56.7546L85.0739 56.1879L90.3085 58.2316L90.972 56.8971L90.7186 53.6464L92.6374 52.848L94.0641 51.3608V48.3528L96.5372 47.3485L95.9572 45.1577L93.5379 45.0966L92.851 42.57L95.77 41.1705L96.2815 39.8101L92.7379 37.7711L91.2067 33.8081H86.0788V29.4773L85.2431 27.7983L86.9817 26.8285L86.9302 24.6979L85.3694 23.3109L85.1596 21.3345L88.0787 17.7934L88.1021 15.8053L85.491 12.9703L81.687 14.2445L79.7917 11.4463L76.2099 13.8446L62.1121 12.7034L59.9181 15.2206L60.0319 18.4752L53.2949 23.4275L49.0847 20.3741L43.9179 20.6911L43.8251 22.4757L46.5033 28.0887L43.6934 31.6979L49.2827 38.0943L50.078 44.7154L55.6066 49.6333L49.7272 50.1131L52.1987 54.8721L55.3805 57.8207Z" />
        <path class="region-icon" fill-rule="evenodd" clip-rule="evenodd" d="M68.5 39.5V46H70.5V39.5H77V37.5H70.5V31H68.5V37.5H62V39.5H68.5Z"  />
    </g>
    <g>
        <path class="region" fill-rule="evenodd" clip-rule="evenodd" d="M125.882 113.677L127.979 112.034L130.752 114.198L132.737 113.33L132.958 110.843L132.246 106.138L130.009 101.896L130.927 100.311L131.635 97.7728L131.912 96.2652L130.931 94.6833L132.718 92.9465L129.729 90.664L126.397 87.1934L127.383 82.4407L129.229 81.9014L129.508 78.2523L128.622 74.8999L127.102 75.9894L124.216 73.2898L120.148 68.7546L122.014 66.5043L120.507 63.0454L119.196 63.1949L117.212 63.4884L114.815 65.0328L112.623 64.794L109.247 68.3022L106.194 71.9184L104.015 73.4604H101.971L100.139 76.2219L98.3337 75.9706L98.9418 77.5361L98.1723 80.1762L96.7377 82.7577L96.4485 85.952L97.7084 89.6277L98.0858 95.1115L95.2197 98.0483L96.5568 102.191L97.1814 106.713L95.6213 109.366L96.5756 113.202L95.654 116.589L95.4178 121.158L96.2715 123.355L95.7288 128.05L99.0728 133.084L101.565 133.209L102.434 136.241L103.09 135.978L103.278 132.149L105.008 132.236L105.748 133.458L106.568 130.989L109.102 131.213L110.106 133.655L111.633 131.702L113.07 132.04L113.415 133.306L115.165 133.208L116.309 131.79L118.16 133.23L119.583 131.112L122.01 126.776L121.768 117.59L124.014 114.238L125.882 113.677Z" />
        <path class="region-icon" fill-rule="evenodd" clip-rule="evenodd" d="M113.5 100.5V107H115.5V100.5H122V98.5H115.5V92H113.5V98.5H107V100.5H113.5Z" />
    </g>
    <g>
        <path class="region" fill-rule="evenodd" clip-rule="evenodd" d="M129.926 34.5083L128.513 33.3921L128.563 36.3712L126.73 37.7378L127.256 39.9623L125.463 42.878L125.024 45.706L121.478 47.756L121.368 50.9221L122.433 52.6214L121.703 54.3927L123.292 57.2771L121.647 60.0112L121.078 62.6388L122.813 66.6166L121.053 68.7386L124.704 72.808L127.16 75.1046L129.028 73.7645L130.2 78.1893L129.873 82.4301L127.968 82.9866L127.142 86.9786L130.183 90.1517L133.301 92.5312L135.605 91.7211L139.487 91.7837L142.833 90.8499L145.094 91.9528L147.195 89.9044L150.589 91.2303L153.232 90.9462L155.465 88.7624L158.575 88.3389L159.236 92.9891L158.588 96.1248L160.224 98.6444H164.966L168.544 96.5756L170.702 96.6735L169.569 94.5507V91.2139L174.471 89.3134L176.869 86.7555L175.274 85.0014L174.713 82.7456L176.315 80.6306L175.836 76.5628L174.594 74.3171L173.959 71.2927L170.358 70.4105L172.214 65.9764L171.183 63.1272L173.721 60.6648L173.351 57.9182L171.381 56.9264L172.348 54.8131L169.773 51.7103L171.647 50.0079L171.498 46.9357L167.078 44.6728L166.889 41.7297L169.599 38.9276L168.85 36.8729L167.229 36.6115L164.906 33.2958L165.249 29.5082L163.697 27.1162L162.051 27.0269L160.459 30.6792H157.351L156.12 32.845L155.846 37.1257L152.828 33.803L152.494 29.7939L148.832 28.6715L146.963 31.0431L144.006 26.3608L141.711 29.5058L138.024 30.1446L136.276 26.926L135.198 31.3594L133.144 32.5953L131.988 31.5409L129.926 34.5083Z" />
        <path class="region-icon" fill-rule="evenodd" clip-rule="evenodd" d="M148.5 61.5V68H150.5V61.5H157V59.5H150.5V53H148.5V59.5H142V61.5H148.5Z"  />
    </g>
    <g>
        <path class="region" fill-rule="evenodd" clip-rule="evenodd" d="M66.9834 115.473L69.6911 115.532L70.4053 116.836L72.1174 117.818L73.2191 120.497L77.3957 120.322L81.4149 123.329L82.0106 126.981L84.4236 127.961L87.5493 130.633L90.3755 129.005L92.1882 130.332L93.8435 133.303L97.5734 134.14L98.4333 133.364L95.0207 128.221L95.5704 123.449L94.726 121.269L94.9732 116.485L95.8675 113.196L94.8882 109.259L96.4701 106.572L95.8854 102.348L94.4407 97.866L97.3808 94.8517L97.0307 89.7671L95.7521 86.0366L96.0678 82.548L97.5367 79.9094L98.2189 77.5698L97.2654 75.1152L97.4315 72.6386L93.7749 72.2559L91.432 73.0018L88.2346 75.7797L84.0104 75.5245L81.9115 75.1903L80.7615 76.6571L80.2228 81.2776L79.4618 84.5212L75.9775 86.4648L72.4815 86.2855L71.3627 87.6114L71.9436 90.8426L68.9645 91.2339L67.1658 94.1238L63.9505 95.0349L62.5596 97.0559L64.3029 98.637L64.8557 102.3L65.9168 106.117L65.0451 108.242L64.8978 109.942H67.6702L68.2035 111.45L65.8653 113.074L66.9834 115.473Z" />
        <path class="region-icon" fill-rule="evenodd" clip-rule="evenodd" d="M80.5 101.5V108H82.5V101.5H89V99.5H82.5V93H80.5V99.5H74V101.5H80.5Z"  />
    </g>
    <g>
        <path class="region" fill-rule="evenodd" clip-rule="evenodd" d="M86.0247 22.9714L87.6082 24.3795L87.6768 27.2279L86.151 28.0803L86.763 29.317V33.1226H91.6765L93.2911 37.2953L97.1286 39.5058L96.3115 41.6692L93.6638 42.942L94.0646 44.4229L96.4854 44.4831L97.3563 47.7573L94.7491 48.8179V51.6404L93.0292 53.4313L91.4426 54.0904L91.6726 57.0342L90.6419 59.1006L84.9877 56.8925L80.9678 57.4193L79.8248 58.0674L79.9628 59.8607L78.3575 59.6133V61.5968L74.9761 61.8425L74.6494 63.6569L74.0203 64.5805L75.2186 65.3429L75.1437 67.5173L73.5579 68.2202L72.8438 69.8592L73.2133 70.3649L74.9941 69.3794L75.9889 71.0412L75.2069 72.5448L75.0377 75.6467L76.6462 78.3785L79.8435 78.6423L80.1055 76.3841L81.6196 74.4492L84.0849 74.8413L87.9965 75.0777L91.0909 72.389L93.7059 71.5554L98.157 72.0227L97.959 75.0096L98.0463 75.2342L99.8068 75.4808L101.602 72.7757H103.794L105.727 71.4051L108.739 67.8406L112.362 64.0757L114.648 64.323L116.966 62.8303L119.107 62.5149L120.437 62.3607L121.001 59.7503L122.5 57.2628L120.944 54.4356L121.665 52.6862L120.677 51.1066L120.808 47.3503L124.397 45.2729L124.808 42.6328L126.523 39.8423L125.958 37.4542L127.874 36.0265L127.805 31.961L129.779 33.5171L131.604 30.895L132.089 27.8697L130.539 28.0646L128.705 26.006L125.99 28.4067L123.969 28.1171L123.622 24.6284L121.659 23.9318L121.658 21.4357L118.615 20.6467L117.505 22.3139H114.925L110.6 19.1149L106.084 19.4655L104.595 17.3921L100.372 17.5064L97.9824 14.1939L93.3637 14.532L92.0889 13.5708L88.787 15.8517L88.7598 18.0449L85.8727 21.5492L86.0247 22.9714Z" />
        <path class="region-icon" fill-rule="evenodd" clip-rule="evenodd" d="M105.5 47.5V54H107.5V47.5H114V45.5H107.5V39H105.5V45.5H99V47.5H105.5Z"  />
    </g>
    <g>
        <path class="region" fill-rule="evenodd" clip-rule="evenodd" d="M19.7577 111.385L20.9248 114.48L24.6828 115.198L27.3446 118.963L30.3385 119.564L32.7149 121.949L33.6403 118.494L33.7643 113.972L35.9341 111.678L38.3729 107.941L40.7532 108.65L43.9763 107.634L48.2894 107.816L51.8688 107.086L54.7364 107.373L55.3882 106.348L53.3774 105.282L53.1085 102.657L54.2132 99.4552L54.7878 95.9947L57.5432 95.1165L60.9908 95.63L62.0473 96.5896L63.5271 94.4418L66.726 93.5338L68.5559 90.5931L71.1412 90.2542L70.6329 87.4145L72.1766 85.5821L75.8176 85.7676L78.8646 84.0691L79.5507 81.1565L79.7651 79.3249L76.2379 79.0338L74.3417 75.8152L74.5312 72.361L75.204 71.0687L74.7464 70.3016L73.0171 71.2597L72.0581 69.9447L72.8175 68.1976L69.4845 67.4008L65.4809 68.3425L62.6414 64.763L60.2096 65.3916L59.1859 62.89L60.7639 60.1911L57.643 57.3279L55.2837 58.664L52.3093 55.9072L52.5019 59.781L49.5852 63.4379L42.8785 63.8958L40.3127 68.0364L32.0732 74.357L27.2689 79.865L19.1971 86.9378L15.7627 91.7218L16.1853 94.488L18.6467 98.1355L16.2648 103.259L19.2696 106.497L19.7577 111.385Z" />
        <path class="region-icon" fill-rule="evenodd" clip-rule="evenodd" d="M43.5 87.5V94H45.5V87.5H52V85.5H45.5V79H43.5V85.5H37V87.5H43.5Z"  />
    </g>
    <g>
        <path class="region" fill-rule="evenodd" clip-rule="evenodd" d="M221.968 154.239L225.625 157.21L224.771 161.046L229.449 160.819L231.304 163.019L233.957 160.127L237.623 160.903L241.073 161.958L244.089 160.636L244.261 157.538L245.082 153.9L247.366 154.817L250.439 151.853L252.862 152.643L259.152 146.748L263.092 143.664L261.09 135.266L268.723 130.176L264.875 128.216L263.266 125.868L265.533 124.803L269.507 125.228L270.428 124.691L266.746 121.798L262.956 121.857L258.228 120.96L257.377 117.102L253.193 115.721L246.564 115.493L246.638 115.683L246.572 119.208L240.69 121.306L237.368 117.66L233.676 117.494L231.739 119.601L231.202 123.656L228.442 122.007L225.154 125.245L223.636 122.265L220.968 122.043L217.314 122.654L217.427 125.268L214.245 129.438L211.177 128.559L208.019 129.961L204.484 128.654L198.414 128.186L195.206 131.866L194.607 136.275L191.74 134.639L187.568 139.071L186.001 137.496L183.132 139.326L180.902 142.025L178.825 140.491L177.252 142.119L181.122 144.976L182.062 147.114L183.121 149.295L187.356 149.414L188.02 150.17L189.922 148.492L194.373 148.747L196.191 149.742L198.037 147.541L199.733 147.387L200.901 149.555L203.758 148.311L206.073 145.985L209.452 146.528L211.232 150.516L214.913 149.766L217.263 150.407L217.125 152.152L219.687 149.886L223.594 150.235L223.021 153.336L221.968 154.239Z" />
        <path class="region-icon" fill-rule="evenodd" clip-rule="evenodd" d="M233.5 138.5V145H235.5V138.5H242V136.5H235.5V130H233.5V136.5H227V138.5H233.5Z"  />
    </g>
    <g>
        <path class="region" fill-rule="evenodd" clip-rule="evenodd" d="M340.616 128.51L338.266 130.017L337.541 126.967L336.322 126.714L335.909 128.433L333.43 128.287L331.836 126.578L329.444 130.632L327.063 131.017L326.613 127.655L323.459 125.341L323.223 122.488L319.844 121.215L319.415 117.476L317.35 116.28L314.212 118.824L310.516 116.937L306.172 116.877L299.946 111.233L296.212 111.291L293.223 111.35L290.812 111.646L287.943 113.324L285.086 114.4L281.261 118.298L280.368 120.932L281.568 123.102L280.752 126.663L276.31 126.532L272.602 125.37L271.405 125.097L269.969 125.936L265.961 125.51L264.599 126.148L265.652 127.682L270.394 130.095L262.178 135.572L264.17 143.934L259.906 147.27L253.588 153.195L253.31 156.265L254.703 157.963L254.191 162.97L252 165.054L252.246 166.24L253.941 168.269L256.127 167.922L260.031 169.143L260.933 170.955L265.134 167.51L268.317 170.641L273.518 169.818L277.96 168.952L281.723 170.211L284.637 168.805L288.781 167.006L292.28 167.561L297.531 166.931L298.198 161.594L296.197 160.437L296.611 157.649L295.043 157.198L294.357 155.447L296.302 153.267L294.509 151.972L295.132 147.375L297.188 147.927L299.198 146.797L305.766 146.736L308.041 145.975L310.528 147.46L314.35 144.779L317.763 147.104L320.998 145.414L321.406 147.251L323.542 147.502L323.411 149.878L325.326 152.169L324.551 154.331L325.188 154.932L327.343 153.968L329.271 155.437L330.49 154.327L333.56 154.324L334.277 152.943L336.348 150.972L334.742 149.526L335.212 145.058L338.931 144.774L339.607 146.132L341.851 146.181L342.407 143.999L341.382 142.697L342.562 141.858L342.615 139.02L340.024 137.568L339.835 131.811L341.324 129.222L340.616 128.51Z" />
        <path class="region-icon" fill-rule="evenodd" clip-rule="evenodd" d="M295.5 132.5V139H297.5V132.5H304V130.5H297.5V124H295.5V130.5H289V132.5H295.5Z"  />
    </g>
    <g>
        <path class="region" fill-rule="evenodd" clip-rule="evenodd" d="M303.56 69.8578L301.285 70.6382L299.084 73.9218L296.67 73.0521L293.203 76.2903L293.095 76.2833L292.603 77.9082L293.381 79.4063L291 81.7381L291.935 82.4817L292.454 84.6209L295.779 85.1578L296.584 86.5989L299.532 85.9539V89.7212L301.705 92.4036L303.273 92.301L304.494 91.0729L305.764 92.8544L305.127 94.0199L306.899 95.6143L305.814 97.2761L306.819 99.366L303.227 99.3065L304.158 100.974L303.366 103.623L300.814 106.252L297.501 105.519L296.8 104.766L295.94 105.903L295.382 108.421L296.536 110.265L300.348 110.206L306.584 115.856L310.828 115.916L314.269 117.672L317.426 115.115L320.198 116.715L320.616 120.382L324.009 121.66L324.257 124.635L327.394 126.937L327.79 129.89L329.161 129.667L331.851 125.102L333.884 127.277L335.519 127.375L335.901 125.792L335.73 119.807L338.075 120.776L339.765 119.253H342.373L343.709 120.285L344.514 118.668L348.955 114.147L349.496 111.26L352.047 107.797L354.515 110.955L356.049 109.534L357.292 110.7L357.348 112.586L360.144 113.288L360.946 114.723L363.774 114.233L366.3 112.431L366.412 110.015L366.295 106.722L364.242 104.015L361.606 100.509L360.211 96.3665L361.97 93.1973L361.187 90.2886L362.453 87.7495L361.312 84.1927L362.302 81.2716L362.461 79.1614L358.31 74.5526L355.681 74.2067L351.502 69.533L351.827 65.6475L348.745 65.7571L347.725 62L344.413 62.3898L344.195 64.9219L341.44 66.5571L335.885 66.2142L331.985 69.6958L331.744 72.3414L329.465 72.7688L325.43 67.7327L324.08 70.1287L321.868 69.8516L318.577 64.7239L313.098 64.9391L308.577 70.0778L307.736 68.9272L306.127 70.4871L303.56 69.8578Z" />
        <path class="region-icon" fill-rule="evenodd" clip-rule="evenodd" d="M327.5 97.5V104H329.5V97.5H336V95.5H329.5V89H327.5V95.5H321V97.5H327.5Z"  />
    </g>
    <g>
        <path class="region" fill-rule="evenodd" clip-rule="evenodd" d="M276.456 67.653L275.407 64L271.934 66.4586L268.245 64.3937L264.419 67.0949L260.738 66.093H256.138L253.933 64.5025L252.895 65.5999L249.733 65.7244L245.071 70.1022L242.223 71.5025L237.566 71.1862L234.915 69.5088L233.561 70.5514L231.344 72.7118L229.512 71.9619L228 75.474L232.125 78.5494L232.673 81.6646L236.6 85.176L235.766 89.4176L239.374 91.1396L239.867 93.8017L244.771 97.9227L242.932 106.768L245.964 114.594L252.981 114.836L257.63 116.371L258.471 120.165L262.692 120.968L266.648 120.906L270.857 124.211L272.137 124.507L275.783 125.646L279.568 125.758L280.202 123.002L278.983 120.8L280.025 117.725L284.064 113.607L287.009 112.498L289.951 110.775L292.533 110.464L294.953 110.414L293.87 108.684L294.522 105.74L295.96 103.836L297.073 105.027L299.808 105.631L301.975 103.4L302.635 101.191L301.269 98.7321L304.937 98.7955L304.247 97.3615L305.218 95.8649L303.481 94.301L304.174 93.0369L303.627 92.2691L302.794 93.1066L300.612 93.2483L298.066 90.1001V86.9418L295.45 87.5132L294.562 85.9188L291.113 85.3607L290.544 83.0086L289.181 81.9276L291.757 79.4049L291.084 78.1095L291.613 76.364L290.01 76.2388L286.531 78.0461L280.863 78.6496L281.699 74.5081L278.634 72.0339L278.874 69.4893L276.456 67.653Z" />
        <path class="region-icon" fill-rule="evenodd" clip-rule="evenodd" d="M265.5 96.5V103H267.5V96.5H274V94.5H267.5V88H265.5V94.5H259V96.5H265.5Z"  />
    </g>
    <g>
        <path class="region" fill-rule="evenodd" clip-rule="evenodd" d="M181.905 137.748L182.934 138.639L186.098 136.62L187.555 138.083L191.611 133.772L194.064 135.174L194.555 131.567L198.124 127.474L204.634 127.976L207.995 129.219L211.127 127.83L213.987 128.649L216.733 125.048L216.603 122.075L220.936 121.349L224.071 121.612L225.339 124.098L228.339 121.144L230.661 122.531L231.091 119.297L233.387 116.792L237.68 116.987L240.89 120.509L245.897 118.721L245.951 115.809L242.551 107.029L244.347 98.3858L239.568 94.3696L239.096 91.8108L235.321 90.0098L236.181 85.6289L232.369 82.2193L231.828 79.14L227.826 76.1562L226.188 76.5061L225.367 79.5674L223.364 81.1642L223.601 84.0047L221.147 88.1704L218.196 90.2775L213.646 87.8706L210.049 88.6596L208.537 91.4711L208.845 97.4363L207.442 98.0876L208.679 99.7814L205.902 103.345L203.418 106.076L202.82 108.485L199.434 107.908L197.841 108.948L196.692 106.811L195.27 108.448L191.921 108.211L190.793 111.803L187.79 110.261L186.237 110.327L184.957 108.431L182.255 110.861L180.699 110.92L179.126 114.021L175.876 114.079L175.935 115.248L172.744 117.605L172.964 119.239L174.545 118.709L174.146 121.633L175.521 122.038L176.097 125.438L176.757 127.981L178.914 128.043L179.278 131.275L181.8 131.459L181.733 134.674L181.905 137.748Z" />
        <path class="region-icon" fill-rule="evenodd" clip-rule="evenodd" d="M219.5 108.5V115H221.5V108.5H228V106.5H221.5V100H219.5V106.5H213V108.5H219.5Z"  />
    </g>
    <g>
        <path class="region" fill-rule="evenodd" clip-rule="evenodd" d="M257.118 10.5119L255.045 12.5932L255.109 15.6388L250.297 18.0527L249 20.5441L249.166 23.4872L250.737 24.4578L251.243 32.4526L248.045 35.3675L249.893 39.2623L247.144 43.2535L247.51 45.096L252.181 48.1401L252.702 52.7793L250.996 54.4896L252.389 57.6447L249.828 60.2176L251.395 62.3709L250.411 65.2247L252.916 65.1269L254.177 63.7962L256.688 65.6075H261.162L264.619 66.5459L268.535 63.7853L272.224 65.8478L276.131 63.0855L277.381 67.4453L279.921 69.3747L279.68 71.9311L282.784 74.4366L282.048 78.0669L286.662 77.5762L290.198 75.7407L292.505 75.9183L296.055 72.6004L298.362 73.4316L300.394 70.4001L303.075 69.4788L305.47 70.0659L306.876 68.7047L305.28 66.5217L305.489 64.7668L302.035 64.2079L300.949 58.5081L302.187 54.1021L297.924 46.93L299.151 45.2487L298.007 43.9235L294.757 45.2541L293.824 39.8549L290.076 39.9605L286.545 41.4446L282.843 41.7013L282.612 39.1504L278.558 39.0455L275.913 40.4944L274.057 38.7755L275.633 35.722L272.139 33.384L273.909 31.3529V28.7518L270.261 24.8515L272.467 22.1143L276.8 21.3323L277.086 19.2331L269.804 12.1517L269.69 7.00056L263.041 0.762207L258.01 4.52009L256.781 1.55433L255.31 1.42283L253.694 7.00996L257.118 10.5119Z" />
        <path class="region-icon" fill-rule="evenodd" clip-rule="evenodd" d="M273.5 49.5V56H275.5V49.5H282V47.5H275.5V41H273.5V47.5H267V49.5H273.5Z"  />
    </g>
    <g>
        <path class="region" fill-rule="evenodd" clip-rule="evenodd" d="M195.784 50.457L197.267 52.9774L199.852 55.3836L199.3 58.1129L205.415 57.7646L209.667 61.8372L208.949 64.2965L212.282 66.7496L216.666 66.4028L222.897 62.3765L227.554 65.7148L226.273 68.4669L229.839 71.4186L231.521 72.1066L233.445 70.2343L235.207 68.8731L238.121 70.7157L242.417 71.0068L245.011 69.7341L249.628 65.3955L250.631 62.4868L248.932 60.1465L251.572 57.4938L250.182 54.3363L251.984 52.525L251.538 48.5401L246.893 45.5133L246.413 43.1049L249.105 39.1998L247.207 35.2016L250.541 32.1654L250.077 24.8579L248.504 23.8857L248.306 20.3932L249.794 17.5386L254.416 15.217L254.358 12.3115L256.156 10.5081L252.928 7.20653L254.617 1.3611L250.746 1.01514L245.789 5.53227L243.36 4.48733L240.791 6.24612L237.155 3.1833L233.135 3.28662L232.346 10.9629L227.853 13.2797L224.589 12.6723L222.895 11.5397L211.523 10.9809L208.819 14.3082L207.296 11.8888H203.649L203.005 14.6988L198.319 19.2887L196.69 25.2351L194.86 25.6954L194.019 28.4334L194.126 30.971L195.502 32.1224L195.501 35.5421L197.017 36.5965L196.368 40.3794L192.889 40.8913L196.513 45.7575L195.784 50.457Z" />
        <path class="region-icon" fill-rule="evenodd" clip-rule="evenodd" d="M223.5 38.5V45H225.5V38.5H232V36.5H225.5V30H223.5V36.5H217V38.5H223.5Z" />
    </g>
    <g>
        <path class="region" fill-rule="evenodd" clip-rule="evenodd" d="M350.626 184.375L351.192 182.004L348.055 180.169L344.504 177.561L344.988 173.802L348.161 173.558L348.754 171.062L351.157 170.278L351.681 167.081L348.457 166.114L345.349 163.593L341.32 163.469L339.869 160.359L336.538 157.018L334.91 153.417L334.562 153.747L333.707 155.398H330.487L329.04 156.719L326.981 155.151L324.781 156.131L323.482 154.911L324.279 152.695L322.442 150.496L322.555 148.498L320.575 148.264L320.256 146.823L317.447 148.291L314.086 146L310.287 148.664L307.692 147.114L305.609 147.808L299.111 147.868L297.013 149.05L295.438 148.628L294.974 152.046L297.051 153.542L294.88 155.98L295.286 157.019L297.104 157.542L296.672 160.463L298.664 161.613L297.878 167.934L291.997 168.642L288.601 168.103L284.652 169.818L282 171.099L283.575 173.224V176.789L285.857 178.214L287.526 175.766L289.442 178.573V182.892L291.754 186.553L291.469 188.892L294.907 190.122L296.828 193.848L293.313 198.013L296.323 199.06L295.105 202.18L300.148 204.341L303.535 205.047L304.88 210.668L306.884 209.026L308.082 206.319L309.35 209.288L310.931 209.661L317.299 203.045L323.094 196.881L329.534 196.177H331.417L332.964 198.25L336.745 193.48L340.001 192.315L342.57 191.086L345.029 192.698L346.499 189.64L348.388 188.375L348.201 185.376L350.626 184.375Z" />
        <path class="region-icon" fill-rule="evenodd" clip-rule="evenodd" d="M315.5 178.5V185H317.5V178.5H324V176.5H317.5V170H315.5V176.5H309V178.5H315.5Z"  />
    </g>
    <g>
        <path class="region" fill-rule="evenodd" clip-rule="evenodd" d="M299.904 204.614L294.186 202.16L295.384 199.087L292.104 197.945L295.969 193.368L294.382 190.294L290.681 188.969L291.002 186.328L288.716 182.706V178.401L287.487 176.595L286.011 178.759L282.85 176.782V173.063L281.227 170.874L277.606 169.66L273.325 170.496L267.77 171.374L264.782 168.431L260.394 172.031L259.241 169.712L255.766 168.625L254.377 168.846L255.702 169.789L255.909 173.988L253.811 174.208L254.423 175.273L255.46 176.12L255.716 181.195L254.788 182.414L251.735 183.376L250.5 185.749L253.661 187.536L254.348 189.988L252.748 190.246V192.608L249.783 193.156V195.586L245.743 196.288L244.574 193.999H242.306L241.294 195.557L238.049 195.97L237.628 197.873L235.332 196.294L234.422 197.254L233.637 198.901L229.174 199.307L229.8 200.964L233.377 203.794L236.698 203.315L237.066 204.298L241.652 204.922L238.493 209.333L234.756 206.667L230.191 206.332L224.157 206.214L222.283 204.997L219.008 206.254L221.612 209.449L224.937 207.667L228.19 209.181L231.706 208.575L232.43 211.465L228.036 213.231L225.948 212.461L224.315 214.098L224.744 215.298L228.143 215.725L231.825 215.247L234.109 218.003L236.335 217.767L238.164 221.552L241.755 221.233L245.889 219.388L249.928 219.738L254.551 219.516L256.005 217.394L257.167 219.258L259.924 215.765L260.948 219.998L263.631 220.32L265.332 221.311L267.688 219.212L267.691 219.218L270.45 216.251L272.261 213.456L274.389 215.708L276.329 213.988L279.756 217.65L282.419 212.185L285.988 217.383L287.284 215.213L289.904 217.316L291.158 218.854L289.745 220.153L291.203 222.884L293.141 222.327L293.875 219.389L293.26 216.544L295.827 215.541L297.114 217.263L296.508 219.331V221.028L298.253 222.045L299.489 220.516L299.813 217.707L299.005 214.925L299.986 211.55L301.542 212.981L304.247 210.764L302.93 205.245L299.904 204.614Z" />
        <path class="region-icon" fill-rule="evenodd" clip-rule="evenodd" d="M268.5 195.5V202H270.5V195.5H277V193.5H270.5V187H268.5V193.5H262V195.5H268.5Z" />
    </g>
    <g>
        <path class="region" fill-rule="evenodd" clip-rule="evenodd" d="M391.277 142.838L386.739 142.65L386.014 139.186L382.684 139.005L380.709 134.801L377.531 135.275L376.129 133.943L377.315 131.813L376.133 129.654L373.205 128.43L371.487 123.963L371.979 120.023L371.686 116.21L369.597 113.435L366.126 113.041L363.445 114.953L359.984 115.555L359.09 113.955L356.08 113.197L356.016 111.077L355.444 110.542L353.832 112.036L351.463 109L349.539 111.61L348.991 114.551L344.478 119.143L343.349 121.409L341.538 120.011H339.428L337.611 121.647L335.844 120.916L335.982 125.771L337.643 126.118L338.248 128.652L340.252 127.367L341.721 128.844L340.066 131.72L340.239 136.891L342.85 138.352L342.781 141.954L341.909 142.574L342.696 143.575L341.921 146.617L338.72 146.544L338.065 145.227L335.374 145.432L335 148.982L336.9 150.69L335.246 152.265L336.92 155.962L340.246 159.301L341.575 162.142L345.411 162.261L348.592 164.842L352.263 165.94L351.578 170.151L349.141 170.941L348.523 173.549L345.406 173.792L345.046 176.592L348.24 178.942L351.787 181.013L351.021 184.225L348.727 185.171L348.858 187.281L352.928 184.559L355.088 183.794L356.629 185.034L360.494 177.941L362.771 177.137L363.953 178.44L366.479 178.235L367.51 176.737L374.179 176.616L375.391 179.046L376.571 175.486L375.277 172.415L377.995 169.684L374.934 168.807L377.049 165.182V158.312L380.818 156.236L383.882 155.779L387.124 153.503L388.286 146.97L392.47 146.528L392.197 143.86L391.277 142.838Z" />
        <path class="region-icon" fill-rule="evenodd" clip-rule="evenodd" d="M362.5 149.5V156H364.5V149.5H371V147.5H364.5V141H362.5V147.5H356V149.5H362.5Z" />
    </g>
    <g>
        <path class="region" fill-rule="evenodd" clip-rule="evenodd" d="M413.405 129.703L409.781 130.743L411.2 126.857L408.962 124.158L409.069 120.78L404.642 120.096L404.391 114.748L407.347 111.41L411.039 111.99L412.801 110.614L412.5 109.413L410.172 110.583L407.922 108.68L405.215 108.567L402.753 107.137L403.426 104.287L408.112 102.911L408.879 100.049L412.26 95.7516L411.833 92.1057L408.077 87.9822L410.728 83.887L407.656 84.5946L404.553 87.8273L402.352 86.2321L399.126 86.351L397.844 82.028L395.069 81.0989L392.086 82.6573L388.272 77.4764L384.819 81.0512L381.019 78.6646H378.558L376.414 76.0581L372.433 76.7242L368.722 75.8546L368.266 73.3444L366.473 73L366.033 78.087L363.182 79.4607L363.018 81.6085L362.075 84.3966L363.232 88.0042L361.958 90.5629L362.746 93.4864L361 96.6345L362.264 100.382L364.83 103.797L367.012 106.677L367.137 110.218L367.031 112.508L370.607 112.912L372.995 116.087L373.309 120.17L372.829 124.003L374.379 128.037L377.259 129.242L378.739 131.94L377.626 133.938L378.401 134.675L381.755 134.173L383.772 138.471L387.216 138.655L387.943 142.111L392.234 142.29L393.496 143.696L393.807 146.713L395.733 148.139L398.774 146.066L400.291 145.65L402.204 147.796L405.493 146.253L409.243 146.937L411.436 145.638L410.208 139.027L411.026 136.345L411.499 132.531L414.381 130.927L413.405 129.703Z" />
        <path class="region-icon" fill-rule="evenodd" clip-rule="evenodd" d="M386.5 111.5V118H388.5V111.5H395V109.5H388.5V103H386.5V109.5H380V111.5H386.5Z" />
    </g>
    <g>
        <path class="region" fill-rule="evenodd" clip-rule="evenodd" d="M53.5323 143.463L53.6524 139.39L49.9053 135.573L47.9445 136.945L45.9189 135.42L45.8074 130.294L42.9312 131.514L39.8048 128.836L38.2962 125.201L35.4332 123.016L32.7442 122.955L30.0014 120.197L26.9451 119.584L24.2857 115.822L20.4201 115.081L19.005 111.331L16.0501 108.468L13.3486 108.233L12.6781 106.776L11.5772 106.855L10.8053 110.736L6.13359 114.394L5.22919 120.64L4.06827 122.321L1.35193 122.663L0 125.17L0.256508 128.779L2.94322 128.949L4.66003 135.657L8.75871 135.999L10.4295 141.703L14.168 140.169L16.2629 145.603H19.458L22.6788 141.473L28.7375 147.73L31.0929 146.042L37.4307 150.513L40.7186 148.256L45.8433 153.229L50.6943 149.535L55.3138 150.364L55.8986 147.769L56.0085 145.828L53.5323 143.463Z" />
        <path class="region-icon" fill-rule="evenodd" clip-rule="evenodd" d="M24.5 132.5V139H26.5V132.5H33V130.5H26.5V124H24.5V130.5H18V132.5H24.5Z" />
    </g>
    <g>
        <path class="region" fill-rule="evenodd" clip-rule="evenodd" d="M121.947 131.585L120.056 131.635L118.318 134.223L116.418 132.745L115.504 133.879L112.901 134.023L112.52 132.615L111.901 132.471L109.919 135.009L108.627 131.864L107.047 131.723L105.93 135.083L104.611 132.905L103.927 132.87L103.752 136.452L101.986 137.162L101.043 133.873L99.0064 133.772L97.7715 134.888L93.3968 133.907L91.6636 130.8L90.3327 129.822L87.4721 131.471L84.0666 128.556L81.7588 127.62L79.7044 129.219L80.7195 131.596L80.5901 134.658L78.0803 137.314L77.0652 136.293L74.5594 136.949L70.8747 140.592L67.0832 144.275L63.6465 148.26L63.2457 152.454L64.5563 154.268L62.4902 159.009H65.5403L71.5312 153.339L82.8059 153.338L84.5328 151.261L91.6823 151.943L95.7708 144.763L105.319 143.906L107.44 138.048L111.847 140.703L113.702 138.84L117.459 140.384L119.864 137.797L122.112 138.84L124.518 136.726L123.556 133.646L121.947 131.585Z" />
        <path class="region-icon" fill-rule="evenodd" clip-rule="evenodd" d="M87.5 141.5V148H89.5V141.5H96V139.5H89.5V133H87.5V139.5H81V141.5H87.5Z" />
    </g>
    <g>
        <path class="region" fill-rule="evenodd" clip-rule="evenodd" d="M62.5391 152.646L62.9859 147.974L66.5863 143.802L70.395 140.1L74.2106 136.33L77.2716 135.529L78.0684 136.33L79.9154 134.371L80.0285 131.722L78.8668 129.002L81.3336 127.081L80.7832 123.717L77.1819 121.017L72.7691 121.206L71.5738 118.299L69.8983 117.338L69.2801 116.212L66.5442 116.15L65.0013 112.842L67.3839 111.185L67.1867 110.63H64.153L64.3705 108.08L65.1946 106.075L64.1897 102.445L63.6611 98.9824L60.6843 96.2812L57.5984 95.8218L55.3943 96.5239L54.8813 99.6204L53.8061 102.737L54.0205 104.847L56.3673 106.087L55.084 108.1L51.9022 107.779L48.3423 108.505L44.0674 108.326L40.7593 109.37L38.6651 108.746L36.4673 112.102L34.4417 114.253L34.3224 118.595L33.3369 122.281L35.6712 122.336L38.8577 124.763L40.3749 128.419L43.0554 130.717L46.4687 129.264L46.5966 135.069L47.9595 136.097L49.9881 134.677L54.3457 139.115L54.2264 143.178L56.7119 145.55L56.5809 147.858L55.9455 150.68L61.9279 158.584L63.771 154.351L62.5391 152.646Z" />
        <path class="region-icon" fill-rule="evenodd" clip-rule="evenodd" d="M58.5 123.5V130H60.5V123.5H67V121.5H60.5V115H58.5V121.5H52V123.5H58.5Z" />
    </g>
    <g>
        <path class="region" fill-rule="evenodd" clip-rule="evenodd" d="M233.85 196.861L235.237 195.395L237.179 196.729L237.483 195.351L240.892 194.915L241.937 193.314H244.99L246.12 195.523L249.098 195.007V192.58L252.062 192.036V189.659L253.483 189.431L253.079 187.997L249.588 186.022L251.26 182.805L254.375 181.824L255.021 180.979L254.789 176.46L253.893 175.729L252.691 173.636L255.191 173.371L255.035 170.158L253.259 168.894L251.299 166.546L250.942 164.818L253.226 162.649L253.681 158.178L252.29 156.481L252.583 153.275L250.619 152.632L247.521 155.62L245.572 154.838L244.942 157.638L244.749 161.097L241.116 162.69L237.454 161.568L234.195 160.879L231.282 164.057L229.145 161.522L223.908 161.777L224.866 157.479L220.902 154.255L222.39 152.97L222.783 150.85L219.918 150.593L216.307 153.793L216.534 150.92L214.893 150.472L210.827 151.299L208.98 147.15L206.31 146.719L204.151 148.89L200.595 150.437L199.345 148.112L198.38 148.199L196.353 150.614L194.181 149.425L190.161 149.196L188.475 150.683L189.125 151.421L186.791 152.753L187.96 155.424L189.736 156.762L189.314 160.77L191.92 162.714L191.326 167.35L194.465 168.164L197.751 167.467L198.635 168.723L199.834 167.099L202.939 171.115L201.934 174.59L201.7 177.898L203.494 180.597L206.039 181.084L207.437 179.934L209.857 181.5L208.211 183.386L210.938 184.568L212.864 186.903L211.523 191.149L207.512 191.087L206.382 191.927L206.628 193.409L210.224 196.286V199.639L208.787 202.205H211.137L212.939 203.589L216.76 199.968L217.294 197.419L219.379 198.705L219.126 200.861L218.936 203.14L219.845 202.929L221.201 201.198L225.229 203.278L227.305 201.294L226.477 198.087L228.461 197.421L228.922 198.642L233.187 198.253L233.85 196.861Z" />
        <path class="region-icon" fill-rule="evenodd" clip-rule="evenodd" d="M226.5 178.5V185H228.5V178.5H235V176.5H228.5V170H226.5V176.5H220V178.5H226.5Z" />
    </g>
    <g>
        <path class="region" fill-rule="evenodd" clip-rule="evenodd" d="M209.538 196.617L205.995 193.784L205.637 191.625L207.289 190.397L211.022 190.456L212.099 187.053L210.518 185.136L207.075 183.645L208.819 181.645L207.486 180.784L206.225 181.819L203.082 181.216L201.002 178.083L201.254 174.469L202.185 171.26L199.844 168.235L198.623 169.892L197.452 168.233L194.448 168.871L190.571 167.862L191.19 163.027L188.591 161.086L189.015 157.076L187.405 155.865L185.913 152.461L188.053 151.243L187.039 150.093L182.685 149.969L181.58 147.693L178.888 148.671L176.582 147.512L174.263 148.254L173.893 151.417L169.24 151.686L168.203 150.154L166.383 151.813L162.967 151.419L160.702 149.202L158.977 149.395L158.86 152.202L155.687 154.093L157.991 157.431L160.52 154.725L163.086 157.5V161.175L164.313 164.164L162.713 168.089L160.962 171.921L165.229 174.226L168.264 180.326L170.191 177.426L172.551 179.152L171.987 181.228L171.319 186.087L172.888 188.54L171.506 191.765L175.388 194.293L178.704 194.056L180.677 198.261L179.875 202.972L180.584 204.874L179.615 206.604L183.477 210.041L182.034 212.75L176.931 211.213L174.525 208.377L171.733 212.302L167.898 209.735L167.72 207.854L162.131 213.016L161.145 210.045L161.351 206.211L158.015 207.098L155.654 209.469L155.003 215.454L158.327 217.958L155.687 221.215L156.162 224.92L150.846 226.313L150.279 231.094L146.523 232.625L144.077 235.723L145.299 238.846L144.518 242.233L139.385 241.516L137.036 242.365L138.751 244.8L139.642 248.37L144.822 250.804L149.908 251.868L150.849 245.852L153.11 247.364L153.924 250.221L161.95 244.373H167.857L172.074 246.791L172.851 251.669L174.263 249.002L173.835 244.901L171.047 242.833L172.311 241.218L170.155 239.488L170.394 234.805L171.677 230.3L174.391 232.164L174.275 236.563L175.576 237.948L175.978 236.332L175.6 233.67L178.583 233.094L178.364 230.674L181.324 228.783L182.677 230.665L184.166 227.901L185.683 230.124L189.192 224.898L191.629 222.664L189.007 218.767L184.416 217.27L183.169 214.763L183.282 213.29L185.144 209.994L189.005 211.201L191.693 216.36L193.493 219.579L196.407 215.848L196.171 212.195L199.506 210.579L199.736 205.592L203.694 204.749L207.378 202.205H207.998L209.538 199.459V196.617Z" />
        <path class="region-icon" fill-rule="evenodd" clip-rule="evenodd" d="M186.5 186.5V193H188.5V186.5H195V184.5H188.5V178H186.5V184.5H180V186.5H186.5Z" />
    </g>
    <g>
        <path class="region" fill-rule="evenodd" clip-rule="evenodd" d="M158.319 148.777L160.948 148.485L163.28 150.762L166.153 151.095L168.326 149.113L169.589 150.977L173.282 150.763L173.634 147.735L176.641 146.771L178.932 147.924L181.291 147.066L180.57 145.421L176.213 142.205L178.753 139.583L180.788 141.086L182.424 139.106L181.236 138.076L181.047 134.688L181.1 132.097L178.662 131.918L178.3 128.712L176.223 128.654L175.428 125.583L174.92 122.577L173.389 122.129L173.718 119.711L172.395 120.153L172.011 117.292L175.232 114.914L175.066 111.662L169.822 107.148L171.677 105.22L171.726 103.915L170.939 103.057L171.725 101.418L170.127 99.6823L172.029 98.1035L171.16 97.385L168.711 97.2699L165.152 99.3316H159.851L157.86 96.2633L158.542 92.9641L157.994 89.1123L155.78 89.4137L153.54 91.6053L150.497 91.9301L147.355 90.7052L145.223 92.7849L142.764 91.5818L139.582 92.471L135.717 92.4099L133.422 93.2162L131.805 94.7902L132.635 96.1263L132.301 97.9274L131.565 100.581L130.79 101.911L132.905 105.925L133.646 110.813L133.381 113.796L130.649 114.991L127.979 112.906L126.204 114.299L124.444 114.83L122.456 117.793L122.697 126.948L120.467 130.937L122.273 130.887L124.172 133.32L125.204 136.631L127.746 138.545L130.874 138.195L134.493 142.52L137.578 142.703V145.293L142.735 145.793L145.886 150.452L148.463 148.676L153.929 149.772L155.178 153.352L155.296 153.524L158.192 151.801L158.319 148.777Z" />
        <path class="region-icon" fill-rule="evenodd" clip-rule="evenodd" d="M150.5 120.5V127H152.5V120.5H159V118.5H152.5V112H150.5V118.5H144V120.5H150.5Z" />
    </g>
    <g>
        <path class="region" fill-rule="evenodd" clip-rule="evenodd" d="M167.594 41.9888L167.736 44.2383L172.163 46.5012L172.349 50.2975L170.718 51.776L173.15 54.705L172.279 56.6102L173.981 57.4649L174.446 60.9175L171.978 63.3135L172.95 65.9928L171.299 69.9346L174.538 70.7275L175.243 74.0713L176.501 76.3483L177.027 80.8239L175.457 82.8982L175.896 84.6609L177.804 86.7609L174.861 89.8973L170.253 91.6859V94.3784L171.561 96.8221L173.107 98.1019L171.121 99.7503L172.547 101.295L171.761 102.936L172.421 103.657L172.352 105.509L170.82 107.101L175.737 111.335L175.842 113.392L178.702 113.341L180.273 110.248L181.982 110.182L185.089 107.391L186.589 109.626L187.942 109.567L190.383 110.82L191.432 107.489L194.977 107.739L196.822 105.611L198.093 107.964L199.284 107.185L202.309 107.701L202.799 105.738L205.381 102.904L207.823 99.7683L206.397 97.8162L208.138 97.01L207.844 91.3141L209.596 88.0563L213.743 87.1452L218.144 89.4731L220.635 87.6939L222.901 83.8445L222.653 80.856L224.765 79.1708L225.637 75.9209L227.664 75.4881L229.246 71.8194L225.43 68.6572L226.692 65.9434L222.88 63.207L216.889 67.0768L212.083 67.4565L208.157 64.5651L208.891 62.0454L205.159 58.4684L198.449 58.8496L199.105 55.6271L196.73 53.4182L195.07 50.5941L195.79 45.94L192.117 41.0057L192.106 41.0088L189.84 39.3659L188.47 34.4347L186.706 33.0829L180.712 32.8622L178.985 35.0585L176.256 34.6483L175.924 32.5303L174.343 32.6172L171.121 37.2415L169.625 36.9989L170.392 39.095L167.594 41.9888Z" />
        <path class="region-icon" fill-rule="evenodd" clip-rule="evenodd" d="M193.5 79.5V86H195.5V79.5H202V77.5H195.5V71H193.5V77.5H187V79.5H193.5Z" />
    </g>
</svg>