<svg width="571" height="386" viewBox="0 0 571 386" fill="none" xmlns="http://www.w3.org/2000/svg">
<path fill-rule="evenodd" clip-rule="evenodd" d="M368.694 302.175L370.841 306.863L371.269 309.001L375.504 310.19L373.148 314.325L369.966 313.717L369.343 316.532L364.137 315.875L359.919 320.74H355.723L346.818 325.059L345.707 326.735L345.536 330.128L339.645 331.281L333.81 336.532L334.646 340.579L338.307 341.852L340.253 341.014L342.68 338.578L349.188 338.407L358.788 346.943L362.326 347.091L364.982 346.424L372.527 351.693L374.646 359.38L373.964 363.489L370.686 365.368L370.549 367.436L371.042 371.892L367.622 375.163L366.248 377.646L368.272 379.946L373.651 380.739L376.034 384.247L381.405 385.95L382.464 382.767L384.851 385.53L389.179 384.224L394.422 379.738L397.983 376.164L402.102 367.73L411.948 362.711L416.554 363.016L419.054 360.001L423.313 363.489L424.64 362.035L425.124 358.161L427.755 356.674L429.215 354.556L432.407 353.946L433.629 348.882L437.948 345.214L442.08 344.869L448.844 351.343L453.905 351.052L456.347 347.294L462.136 349.718L466.062 347.138L469.19 346.048L466.231 340.995L468.209 334.875L470.276 332.28L474.898 331.847L473.952 329.238L465.767 328.63L456.046 327.868L452.976 335.331L448.969 332.768L447.083 330.203L443.471 334.847L438.544 337.241L433.485 341.007L426.22 337.928L422.338 337.274L418.362 332.933L421.397 328.445L418.792 323.652L413.286 321.758L412.076 319.479H408.115V315.072L404.067 313.567L401.574 310.752L398.183 309.942L396.775 306.488L391.572 305.642L389.131 310.866L386.598 309.169L386.283 304.583L384.643 303.41L382.092 306.933L375.874 301.193L372.635 297.943L368.694 302.175Z" fill="#B5B6B6"/>
<path fill-rule="evenodd" clip-rule="evenodd" d="M76.2713 78.5826L79.5195 76.7425L84.884 81.6635L82.5625 85.6392L83.4806 87.8857L86.6289 87.0761L90.546 92.0155L95.6969 90.8027L100.904 92.0468L102.567 91.3051L102.632 89.4499L100.615 88.1617L101.917 86.2515L102.463 83.232L106.974 82.9021V79.9473L109.094 80.275L108.951 78.3983L111.206 77.1144L117.166 76.3339L124.375 79.1485L125.289 77.3106L124.94 72.8336L127.582 71.7341L129.547 69.6859V65.5432L132.953 64.1601L132.155 61.1428L128.823 61.0587L127.877 57.5789L131.897 55.6515L132.601 53.7779L127.721 50.9697L125.612 45.5119H118.55V39.5473L117.399 37.235L119.793 35.8994L119.722 32.9651L117.573 31.0549L117.284 28.3329L121.304 23.4561L121.336 20.718L117.74 16.8135L112.501 18.5684L109.891 14.7146L104.958 18.0176L85.5422 16.4459L82.5207 19.9127L82.6774 24.395L73.399 31.2155L67.6006 27.0102L60.4848 27.4468L60.357 29.9046L64.0454 37.6349L60.1755 42.6056L67.8734 51.415L68.9686 60.5337L76.5827 67.3068L68.4854 67.9676L71.8893 74.5218L76.2713 78.5826Z" fill="#B5B6B6"/>
<path fill-rule="evenodd" clip-rule="evenodd" d="M230.814 56.7784L231.011 59.8766L237.107 62.9931L237.363 68.2214L235.117 70.2577L238.466 74.2916L237.267 76.9154L239.611 78.0926L240.252 82.8476L236.852 86.1474L238.191 89.8373L235.918 95.2661L240.379 96.3581L241.349 100.963L243.082 104.099L243.806 110.263L241.643 113.12L242.249 115.548L244.877 118.44L240.823 122.759L234.477 125.223V128.931L236.278 132.296L238.407 134.059L235.672 136.329L237.636 138.457L236.554 140.717L237.463 141.709L237.368 144.26L235.258 146.453L242.029 152.283L242.174 155.116L246.114 155.046L248.277 150.786L250.63 150.696L254.909 146.851L256.976 149.93L258.839 149.849L262.201 151.575L263.645 146.987L268.527 147.331L271.069 144.4L272.818 147.641L274.459 146.569L278.625 147.279L279.299 144.576L282.856 140.672L286.22 136.354L284.255 133.665L286.654 132.555L286.248 124.71L288.662 120.224L294.372 118.969L300.433 122.175L303.864 119.725L306.984 114.423L306.643 110.307L309.552 107.986L310.753 103.511L313.544 102.914L315.724 97.8619L310.468 93.5068L312.206 89.7694L306.955 86.0007L298.705 91.3304L292.086 91.8532L286.679 87.8711L287.69 84.401L282.55 79.4746L273.309 79.9995L274.212 75.5614L270.942 72.5193L268.655 68.6299L269.647 62.2202L264.589 55.4245L264.573 55.4288L261.452 53.1661L259.566 46.3747L257.137 44.513L248.881 44.209L246.502 47.2339L242.744 46.669L242.288 43.752L240.11 43.8716L235.672 50.2404L233.612 49.9062L234.668 52.7931L230.814 56.7784Z" fill="#FFD400"/>
<path fill-rule="evenodd" clip-rule="evenodd" d="M266.5 103.45V109.95H268.5V103.45H275V101.45H268.5V94.9504H266.5V101.45H260V103.45H266.5Z" fill="#303030"/>
<path fill-rule="evenodd" clip-rule="evenodd" d="M173.367 155.509L176.254 153.247L180.074 156.226L182.807 155.031L183.111 151.606L182.131 145.126L179.05 139.284L180.315 137.101L181.29 133.605L181.671 131.529L180.32 129.351L182.781 126.959L178.665 123.815L174.076 119.035L175.434 112.49L177.977 111.747L178.361 106.721L177.14 102.104L175.046 103.605L171.072 99.8869L165.469 93.641L168.04 90.5417L165.964 85.7781L164.158 85.984L161.425 86.3882L158.125 88.5151L155.105 88.1863L150.456 93.0179L146.252 97.9982L143.251 100.122H140.435L137.912 103.925L135.426 103.579L136.264 105.735L135.204 109.371L133.228 112.926L132.83 117.326L134.565 122.388L135.085 129.94L131.138 133.985L132.979 139.691L133.839 145.918L131.691 149.572L133.005 154.855L131.736 159.519L131.41 165.813L132.586 168.838L131.839 175.303L136.444 182.237L139.876 182.41L141.073 186.585L141.976 186.222L142.236 180.95L144.619 181.069L145.638 182.752L146.767 179.352L150.256 179.66L151.639 183.024L153.743 180.333L155.722 180.799L156.196 182.542L158.607 182.407L160.182 180.455L162.732 182.439L164.691 179.521L168.035 173.55L167.701 160.898L170.794 156.282L173.367 155.509Z" fill="#B5B6B6"/>
<path fill-rule="evenodd" clip-rule="evenodd" d="M178.937 46.476L176.992 44.9388L177.06 49.0416L174.536 50.9238L175.26 53.9874L172.791 58.003L172.187 61.8978L167.303 64.721L167.152 69.0815L168.617 71.4219L167.612 73.8614L169.801 77.8338L167.535 81.5992L166.751 85.218L169.141 90.6964L166.717 93.6189L171.745 99.2234L175.128 102.386L177.7 100.541L179.315 106.635L178.864 112.475L176.241 113.242L175.103 118.739L179.291 123.11L183.586 126.387L186.759 125.271L192.105 125.357L196.714 124.071L199.826 125.59L202.72 122.769L207.394 124.595L211.036 124.204L214.11 121.196L218.393 120.613L219.304 127.017L218.411 131.336L220.664 134.806H227.195L232.123 131.957L235.094 132.091L233.535 129.168V124.572L240.286 121.955L243.589 118.432L241.392 116.016L240.619 112.91L242.826 109.997L242.166 104.395L240.455 101.302L239.581 97.1364L234.621 95.9215L237.177 89.8146L235.758 85.8907L239.253 82.4993L238.743 78.7167L236.03 77.3508L237.362 74.4403L233.816 70.1671L236.397 67.8224L236.192 63.5913L230.103 60.4748L229.844 56.4216L233.576 52.5623L232.544 49.7326L230.312 49.3725L227.113 44.8062L227.584 39.5897L225.448 36.2954L223.181 36.1725L220.988 41.2024H216.708L215.012 44.1852L214.635 50.0808L210.478 45.5047L210.019 39.9832L204.975 38.4374L202.401 41.7037L198.329 35.2551L195.168 39.5865L190.09 40.4662L187.683 36.0334L186.198 42.1392L183.37 43.8414L181.777 42.3893L178.937 46.476Z" fill="#B5B6B6"/>
<path fill-rule="evenodd" clip-rule="evenodd" d="M92.2525 157.982L95.9817 158.064L96.9652 159.86L99.3232 161.212L100.84 164.902L106.593 164.66L112.128 168.802L112.948 173.832L116.272 175.182L120.576 178.862L124.469 176.62L126.965 178.447L129.245 182.538L134.382 183.691L135.566 182.622L130.866 175.54L131.623 168.967L130.46 165.965L130.801 159.376L132.032 154.846L130.684 149.424L132.862 145.723L132.057 139.906L130.067 133.734L134.117 129.582L133.634 122.58L131.873 117.442L132.308 112.637L134.331 109.004L135.271 105.781L133.958 102.401L134.186 98.99L129.15 98.4629L125.924 99.4902L121.52 103.316L115.703 102.965L112.812 102.504L111.228 104.524L110.486 110.888L109.438 115.355L104.639 118.032L99.8247 117.785L98.2838 119.611L99.0838 124.061L94.9809 124.6L92.5037 128.58L88.0755 129.835L86.1599 132.618L88.5609 134.796L89.3222 139.841L90.7836 145.097L89.5831 148.024L89.3801 150.365H93.1985L93.9329 152.442L90.7127 154.679L92.2525 157.982Z" fill="#B5B6B6"/>
<path fill-rule="evenodd" clip-rule="evenodd" d="M118.475 30.5871L120.656 32.5264L120.751 36.4492L118.649 37.6232L119.492 39.3264V44.5676H126.259L128.483 50.3144L133.768 53.3587L132.643 56.3383L128.996 58.0911L129.548 60.1306L132.882 60.2136L134.082 64.7229L130.491 66.1836V70.0708L128.122 72.5373L125.937 73.445L126.254 77.4993L124.834 80.3452L117.047 77.3042L111.511 78.0297L109.937 78.9222L110.127 81.3919L107.916 81.0513V83.7829L103.259 84.1214L102.809 86.6202L101.943 87.8923L103.593 88.9422L103.49 91.9369L101.306 92.9049L100.322 95.1622L100.831 95.8586L103.284 94.5014L104.654 96.79L103.577 98.8609L103.344 103.133L105.559 106.895L109.963 107.258L110.323 104.148L112.409 101.484L115.804 102.024L121.191 102.349L125.453 98.6463L129.054 97.4983L135.184 98.1418L134.912 102.255L135.032 102.565L137.456 102.904L139.929 99.1789H142.948L145.61 97.2913L149.758 92.3821L154.748 87.1969L157.897 87.5376L161.088 85.4819L164.038 85.0474L165.868 84.8351L166.646 81.2399L168.71 77.8141L166.567 73.9204L167.561 71.511L166.199 69.3356L166.379 64.1623L171.323 61.3013L171.889 57.6653L174.25 53.8222L173.473 50.5332L176.111 48.567L176.017 42.9679L178.735 45.1109L181.249 41.4996L181.917 37.3332L179.781 37.6016L177.256 34.7665L173.517 38.0727L170.734 37.6738L170.256 32.8692L167.552 31.9098L167.55 28.4721L163.359 27.3855L161.831 29.6816H158.278L152.322 25.2758L146.101 25.7588L144.05 22.9032L138.235 23.0605L134.944 18.4985L128.583 18.9642L126.827 17.6404L122.28 20.7817L122.242 23.8022L118.266 28.6284L118.475 30.5871Z" fill="#B5B6B6"/>
<path fill-rule="evenodd" clip-rule="evenodd" d="M27.2095 152.352L28.8169 156.615L33.9925 157.604L37.6584 162.789L41.7816 163.617L45.0545 166.902L46.329 162.144L46.4998 155.915L49.4881 152.757L52.8468 147.609L56.125 148.586L60.564 147.187L66.5041 147.437L71.4338 146.432L75.3831 146.827L76.2807 145.415L73.5115 143.947L73.141 140.332L74.6626 135.923L75.4539 131.157L79.2486 129.947L83.9968 130.654L85.4518 131.976L87.4898 129.018L91.8955 127.768L94.4156 123.718L97.9762 123.251L97.2761 119.34L99.4022 116.816L104.417 117.072L108.613 114.732L109.558 110.721L109.853 108.199L104.995 107.798L102.384 103.365L102.645 98.6078L103.572 96.828L102.941 95.7716L100.56 97.0911L99.239 95.28L100.285 92.8739L95.6945 91.7765L90.1807 93.0734L86.27 88.1437L82.9209 89.0093L81.5111 85.5641L83.6844 81.8471L79.3861 77.9038L76.1369 79.744L72.0404 75.9473L72.3056 81.2823L68.2887 86.3187L59.0521 86.9493L55.5184 92.6519L44.1708 101.357L37.5542 108.943L26.4375 118.683L21.7075 125.272L22.2895 129.082L25.6794 134.105L22.399 141.162L26.5373 145.621L27.2095 152.352Z" fill="#FFD400"/>
<path fill-rule="evenodd" clip-rule="evenodd" d="M58.5 119.45V125.95H60.5V119.45H67V117.45H60.5V110.95H58.5V117.45H52V119.45H58.5Z" fill="#303030"/>
<path fill-rule="evenodd" clip-rule="evenodd" d="M305.7 211.372L310.737 215.463L309.56 220.748L316.002 220.434L318.557 223.464L322.211 219.481L327.261 220.55L332.011 222.002L336.166 220.182L336.403 215.916L337.533 210.906L340.679 212.168L344.91 208.086L348.248 209.174L356.911 201.056L362.337 196.809L359.58 185.242L370.092 178.233L364.792 175.533L362.576 172.299L365.699 170.832L371.172 171.418L372.441 170.678L367.369 166.694L362.15 166.775L355.638 165.539L354.466 160.227L348.703 158.324L339.574 158.01L339.676 158.271L339.586 163.127L331.484 166.017L326.909 160.994L321.824 160.766L319.157 163.668L318.417 169.253L314.616 166.982L310.087 171.441L307.997 167.337L304.322 167.031L299.29 167.872L299.446 171.472L295.064 177.216L290.839 176.005L286.489 177.936L281.62 176.136L273.26 175.491L268.842 180.559L268.018 186.631L264.07 184.378L258.323 190.482L256.166 188.313L252.214 190.833L249.142 194.55L246.283 192.438L244.116 194.681L249.446 198.615L250.74 201.559L252.199 204.564L258.031 204.728L258.946 205.768L261.566 203.458L267.696 203.809L270.199 205.178L272.741 202.148L275.077 201.936L276.685 204.922L280.621 203.208L283.809 200.005L288.462 200.753L290.914 206.245L295.983 205.212L299.219 206.094L299.03 208.498L302.558 205.377L307.939 205.858L307.15 210.128L305.7 211.372Z" fill="#B5B6B6"/>
<path fill-rule="evenodd" clip-rule="evenodd" d="M468.678 175.937L465.441 178.014L464.442 173.813L462.763 173.464L462.195 175.832L458.781 175.63L456.585 173.277L453.291 178.86L450.012 179.39L449.392 174.76L445.048 171.574L444.723 167.644L440.069 165.89L439.479 160.741L436.634 159.095L432.312 162.597L427.223 159.999L421.241 159.916L412.666 152.144L407.523 152.224L403.406 152.304L400.086 152.712L396.135 155.023L392.201 156.504L386.933 161.874L385.702 165.501L387.355 168.489L386.23 173.394L380.113 173.213L375.006 171.613L373.358 171.237L371.38 172.393L365.86 171.805L363.985 172.684L365.435 174.798L371.965 178.12L360.651 185.664L363.394 197.179L357.521 201.774L348.82 209.934L348.437 214.162L350.356 216.501L349.65 223.396L346.633 226.267L346.972 227.9L349.307 230.694L352.317 230.217L357.694 231.898L358.935 234.394L364.722 229.65L369.105 233.962L376.268 232.829L382.386 231.635L387.568 233.37L391.582 231.433L397.289 228.955L402.108 229.72L409.339 228.852L410.258 221.502L407.502 219.908L408.073 216.068L405.913 215.448L404.969 213.035L407.647 210.033L405.178 208.25L406.036 201.919L408.868 202.679L411.636 201.123L420.681 201.038L423.815 199.991L427.239 202.037L432.503 198.343L437.203 201.546L441.659 199.218L442.221 201.748L445.162 202.094L444.982 205.366L447.62 208.522L446.553 211.498L447.429 212.326L450.397 210.999L453.053 213.023L454.732 211.494L458.959 211.49L459.947 209.587L462.799 206.873L460.587 204.881L461.234 198.727L466.356 198.337L467.287 200.207L470.378 200.274L471.144 197.27L469.732 195.476L471.358 194.32L471.431 190.413L467.862 188.412L467.602 180.483L469.653 176.918L468.678 175.937Z" fill="#FFD400"/>
<path fill-rule="evenodd" clip-rule="evenodd" d="M402.5 186.45V192.95H404.5V186.45H411V184.45H404.5V177.95H402.5V184.45H396V186.45H402.5Z" fill="#303030"/>
<path fill-rule="evenodd" clip-rule="evenodd" d="M417.446 95.6238L414.313 96.6985L411.282 101.221L407.958 100.023L403.183 104.483L403.034 104.473L402.356 106.711L403.428 108.774L400.148 111.986L401.436 113.01L402.151 115.956L406.73 116.695L407.839 118.68L411.899 117.792V122.98L414.891 126.674L417.052 126.533L418.733 124.842L420.482 127.295L419.604 128.9L422.045 131.096L420.55 133.385L421.934 136.263L416.988 136.181L418.27 138.477L417.179 142.126L413.665 145.746L409.102 144.737L408.136 143.7L406.952 145.267L406.184 148.733L407.773 151.273L413.023 151.192L421.611 158.973L427.455 159.056L432.195 161.475L436.543 157.953L440.36 160.157L440.937 165.207L445.61 166.967L445.951 171.064L450.271 174.234L450.816 178.302L452.704 177.994L456.41 171.708L459.21 174.703L461.462 174.838L461.987 172.658L461.752 164.415L464.982 165.75L467.309 163.652H470.901L472.741 165.074L473.85 162.846L479.966 156.62L480.71 152.643L484.223 147.874L487.623 152.224L489.736 150.267L491.448 151.872L491.525 154.47L495.376 155.437L496.479 157.413L500.375 156.739L503.853 154.256L504.008 150.929L503.847 146.394L501.019 142.666L497.389 137.837L495.468 132.132L497.89 127.767L496.812 123.762L498.555 120.265L496.984 115.366L498.348 111.343L498.566 108.437L492.849 102.09L489.229 101.613L483.474 95.1764L483.921 89.8252L479.676 89.9761L478.272 84.8018L473.71 85.3386L473.41 88.8259L469.616 91.0778L461.965 90.6057L456.594 95.4006L456.263 99.0442L453.124 99.6328L447.566 92.697L445.707 95.9967L442.66 95.6151L438.129 88.5532L430.582 88.8496L424.357 95.9267L423.198 94.342L420.982 96.4905L417.446 95.6238Z" fill="#B5B6B6"/>
<path fill-rule="evenodd" clip-rule="evenodd" d="M381.197 92.4016L379.752 87.3706L374.969 90.7566L369.889 87.9128L364.619 91.633L359.549 90.2532H353.214L350.178 88.0627L348.747 89.574L344.393 89.7454L337.973 95.7747L334.05 97.7032L327.636 97.2677L323.985 94.9575L322.121 96.3934L319.067 99.3687L316.544 98.336L314.462 103.173L320.143 107.408L320.898 111.699L326.307 116.535L325.158 122.376L330.126 124.748L330.806 128.414L337.559 134.09L335.027 146.272L339.203 157.05L348.867 157.383L355.269 159.497L356.427 164.722L362.24 165.828L367.689 165.743L373.486 170.294L375.249 170.702L380.27 172.271L385.483 172.426L386.356 168.63L384.677 165.596L386.112 161.362L391.675 155.691L395.73 154.163L399.783 151.791L403.339 151.361L406.672 151.294L405.18 148.91L406.078 144.856L408.058 142.234L409.591 143.874L413.357 144.706L416.342 141.634L417.252 138.592L415.369 135.204L420.421 135.292L419.471 133.317L420.809 131.256L418.416 129.102L419.37 127.361L418.618 126.303L417.471 127.457L414.465 127.652L410.958 123.316V118.967L407.356 119.754L406.133 117.558L401.382 116.789L400.599 113.55L398.722 112.061L402.269 108.587L401.343 106.803L402.071 104.399L399.864 104.226L395.072 106.715L387.267 107.546L388.418 101.843L384.196 98.4351L384.527 94.9306L381.197 92.4016Z" fill="#B5B6B6"/>
<path fill-rule="evenodd" clip-rule="evenodd" d="M250.525 188.661L251.941 189.888L256.299 187.107L258.306 189.121L263.892 183.185L267.27 185.116L267.946 180.148L272.861 174.51L281.827 175.202L286.456 176.914L290.769 175.001L294.708 176.129L298.49 171.17L298.312 167.075L304.278 166.075L308.596 166.437L310.343 169.862L314.475 165.794L317.673 167.704L318.264 163.25L321.427 159.8L327.339 160.067L331.759 164.918L338.655 162.456L338.73 158.445L334.048 146.354L336.521 134.45L329.939 128.919L329.29 125.395L324.091 122.914L325.275 116.881L320.024 112.185L319.279 107.944L313.767 103.835L311.511 104.317L310.381 108.533L307.623 110.732L307.95 114.644L304.569 120.381L300.505 123.283L294.239 119.968L289.285 121.055L287.202 124.927L287.626 133.142L285.695 134.039L287.398 136.372L283.574 141.28L280.153 145.041L279.328 148.359L274.665 147.564L272.472 148.996L270.89 146.053L268.931 148.307L264.319 147.982L262.765 152.929L258.629 150.805L256.49 150.896L254.727 148.285L251.007 151.631L248.863 151.712L246.697 155.983L242.221 156.063L242.302 157.673L237.908 160.919L238.211 163.17L240.388 162.439L239.838 166.466L241.732 167.024L242.526 171.707L243.434 175.209L246.406 175.295L246.906 179.746L250.38 179.999L250.287 184.427L250.525 188.661Z" fill="#B5B6B6"/>
<path fill-rule="evenodd" clip-rule="evenodd" d="M354.111 13.4275L351.256 16.2939L351.344 20.4884L344.717 23.8129L342.93 27.2442L343.159 31.2974L345.323 32.6341L346.02 43.6448L341.615 47.6592L344.161 53.0233L340.374 58.52L340.878 61.0576L347.311 65.25L348.029 71.6393L345.679 73.9947L347.598 78.3401L344.071 81.8834L346.229 84.849L344.874 88.7794L348.324 88.6446L350.06 86.812L353.519 89.3065H359.68L364.441 90.599L369.835 86.7969L374.915 89.6375L380.295 85.8332L382.018 91.8376L385.516 94.4949L385.184 98.0156L389.459 101.466L388.445 106.466L394.8 105.79L399.669 103.262L402.847 103.507L407.736 98.9373L410.913 100.082L413.711 95.9071L417.404 94.6383L420.702 95.4468L422.638 93.5721L420.44 90.5656L420.728 88.1488L415.971 87.3791L414.476 79.5291L416.181 73.4611L410.309 63.5834L412 61.2679L410.424 59.4428L405.949 61.2754L404.664 53.8394L399.502 53.9849L394.639 56.0288L389.541 56.3824L389.222 52.8692L383.639 52.7247L379.996 54.7201L377.439 52.3528L379.61 48.1476L374.799 44.9276L377.236 42.1302V38.548L372.211 33.1764L375.25 29.4066L381.217 28.3297L381.611 25.4385L371.582 15.6859L371.425 8.59162L362.268 0L355.339 5.17546L353.647 1.09093L351.62 0.909828L349.396 8.60456L354.111 13.4275Z" fill="#B5B6B6"/>
<path fill-rule="evenodd" clip-rule="evenodd" d="M269.638 68.441L271.681 71.9122L275.241 75.226L274.481 78.9849L282.903 78.5052L288.759 84.114L287.77 87.5011L292.36 90.8795L298.398 90.402L306.979 84.8568L313.393 89.4544L311.629 93.2446L316.54 97.3098L318.856 98.2573L321.506 95.6788L323.933 93.8041L327.946 96.3417L333.863 96.7427L337.435 94.9899L343.794 89.0146L345.175 85.0088L342.836 81.7856L346.472 78.1322L344.557 73.7836L347.039 71.2891L346.424 65.801L340.028 61.6324L339.366 58.3154L343.074 52.9373L340.46 47.4309L345.052 43.2494L344.412 33.1852L342.246 31.8463L341.974 27.0363L344.022 23.1049L350.388 19.9075L350.308 15.906L352.784 13.4223L348.339 8.87533L350.665 0.824863L345.333 0.348389L338.506 6.5695L335.162 5.13038L331.623 7.55263L326.615 3.33444L321.079 3.47673L319.992 14.0486L313.804 17.2395L309.309 16.403L306.977 14.8431L291.315 14.0734L287.591 18.656L285.493 15.3239H280.47L279.583 19.1939L273.13 25.5153L270.886 33.7048L268.366 34.3387L267.208 38.1095L267.355 41.6044L269.25 43.1901L269.249 47.8998L271.337 49.3519L270.442 54.5619L265.651 55.2669L270.642 61.9688L269.638 68.441Z" fill="#B5B6B6"/>
<path fill-rule="evenodd" clip-rule="evenodd" d="M482.834 252.343L483.614 249.078L479.294 246.551L474.403 242.959L475.07 237.781L479.44 237.445L480.256 234.008L483.565 232.928L484.287 228.526L479.847 227.193L475.567 223.721L470.018 223.551L468.019 219.268L463.432 214.666L461.19 209.707L460.71 210.162L459.533 212.435H455.099L453.106 214.255L450.27 212.095L447.24 213.444L445.451 211.764L446.548 208.713L444.019 205.684L444.174 202.932L441.448 202.61L441.009 200.626L437.14 202.647L432.511 199.492L427.278 203.161L423.705 201.026L420.836 201.982L411.887 202.064L408.998 203.692L406.829 203.111L406.19 207.818L409.05 209.88L406.06 213.236L406.619 214.668L409.123 215.388L408.527 219.411L411.271 220.995L410.188 229.701L402.089 230.675L397.413 229.932L391.974 232.294L388.321 234.059L390.49 236.986V241.896L393.633 243.858L395.932 240.487L398.57 244.353V250.3L401.754 255.343L401.362 258.564L406.097 260.257L408.742 265.39L403.901 271.126L408.047 272.568L406.37 276.865L413.315 279.84L417.98 280.813L419.832 288.555L422.591 286.293L424.242 282.564L425.989 286.653L428.165 287.167L436.936 278.056L444.916 269.567L453.785 268.597H456.38L458.51 271.452L463.718 264.883L468.202 263.278L471.74 261.586L475.127 263.805L477.151 259.594L479.752 257.852L479.495 253.722L482.834 252.343Z" fill="#B5B6B6"/>
<path fill-rule="evenodd" clip-rule="evenodd" d="M413.035 280.75L405.16 277.37L406.811 273.138L402.293 271.565L407.616 265.261L405.431 261.028L400.332 259.204L400.775 255.566L397.627 250.578V244.649L395.934 242.161L393.902 245.141L389.549 242.419V237.297L387.313 234.282L382.325 232.61L376.43 233.762L368.78 234.97L364.665 230.917L358.621 235.876L357.033 232.682L352.247 231.185L350.335 231.49L352.159 232.789L352.445 238.571L349.555 238.874L350.398 240.341L351.826 241.507L352.178 248.496L350.9 250.176L346.696 251.5L344.995 254.768L349.349 257.229L350.295 260.606L348.09 260.962V264.215L344.008 264.969V268.316L338.444 269.283L336.833 266.131H333.71L332.316 268.276L327.847 268.845L327.268 271.466L324.105 269.292L322.853 270.613L321.771 272.881L315.624 273.441L316.486 275.723L321.413 279.621L325.986 278.961L326.494 280.315L332.809 281.174L328.459 287.249L323.312 283.577L317.025 283.116L308.715 282.953L306.134 281.278L301.623 283.008L305.209 287.409L309.789 284.954L314.269 287.04L319.112 286.204L320.108 290.185L314.057 292.617L311.182 291.557L308.932 293.812L309.523 295.464L314.204 296.052L319.275 295.394L322.421 299.189L325.486 298.864L328.006 304.078L332.951 303.638L338.644 301.097L344.207 301.579L350.574 301.274L352.577 298.351L354.177 300.918L357.974 296.107L359.384 301.937L363.079 302.381L365.422 303.746L368.666 300.854L368.67 300.863L372.47 296.776L374.965 292.927L377.896 296.028L380.568 293.66L385.287 298.703L388.955 291.177L393.871 298.336L395.655 295.347L399.263 298.243L400.991 300.362L399.044 302.151L401.052 305.911L403.721 305.145L404.732 301.098L403.884 297.181L407.42 295.799L409.193 298.17L408.358 301.018V303.355L410.762 304.756L412.464 302.65L412.91 298.782L411.797 294.95L413.148 290.302L415.291 292.272L419.016 289.22L417.202 281.619L413.035 280.75Z" fill="#B5B6B6"/>
<path fill-rule="evenodd" clip-rule="evenodd" d="M539.081 196.037L532.831 195.777L531.833 191.007L527.247 190.758L524.527 184.968L520.15 185.62L518.218 183.786L519.852 180.852L518.225 177.879L514.192 176.194L511.826 170.041L512.503 164.615L512.1 159.363L509.223 155.542L504.442 155L500.75 157.633L495.984 158.461L494.752 156.258L490.606 155.214L490.518 152.294L489.731 151.557L487.511 153.615L484.248 149.434L481.599 153.029L480.844 157.079L474.628 163.403L473.074 166.524L470.58 164.599H467.673L465.171 166.851L462.737 165.845L462.928 172.531L465.215 173.009L466.048 176.499L468.808 174.729L470.832 176.763L468.552 180.725L468.791 187.846L472.386 189.859L472.291 194.82L471.09 195.672L472.174 197.051L471.107 201.241L466.698 201.14L465.796 199.327L462.09 199.609L461.575 204.498L464.192 206.85L461.914 209.019L464.22 214.111L468.799 218.71L470.63 222.622L475.913 222.786L480.294 226.34L485.35 227.854L484.406 233.652L481.051 234.741L480.199 238.333L475.907 238.667L475.41 242.523L479.81 245.76L484.694 248.612L483.64 253.036L480.481 254.339L480.661 257.244L486.265 253.496L489.241 252.442L491.363 254.149L496.686 244.382L499.821 243.274L501.449 245.068L504.928 244.786L506.348 242.722L515.534 242.556L517.203 245.904L518.828 241L517.046 236.771L520.789 233.01L516.573 231.801L519.486 226.809V217.348L524.677 214.489L528.897 213.859L533.362 210.724L534.962 201.727L540.723 201.118L540.348 197.445L539.081 196.037Z" fill="#FFD400"/>
<path fill-rule="evenodd" clip-rule="evenodd" d="M499.5 199.45V205.95H501.5V199.45H508V197.45H501.5V190.95H499.5V197.45H493V199.45H499.5Z" fill="#303030"/>
<path fill-rule="evenodd" clip-rule="evenodd" d="M568.671 177.771L563.68 179.203L565.635 173.851L562.552 170.134L562.7 165.482L556.602 164.54L556.257 157.174L560.328 152.578L565.412 153.376L567.839 151.481L567.426 149.828L564.219 151.438L561.119 148.818L557.392 148.662L554.001 146.693L554.928 142.767L561.381 140.873L562.438 136.931L567.094 131.012L566.506 125.991L561.333 120.312L564.984 114.672L560.754 115.647L556.48 120.099L553.449 117.902L549.006 118.066L547.24 112.112L543.418 110.832L539.31 112.979L534.057 105.843L529.303 110.766L524.068 107.48H520.679L517.726 103.89L512.244 104.807L507.132 103.61L506.505 100.153L504.036 99.6782L503.429 106.684L499.503 108.576L499.277 111.534L497.979 115.374L499.572 120.342L497.817 123.866L498.903 127.893L496.498 132.228L498.238 137.39L501.772 142.093L504.778 146.059L504.949 150.936L504.803 154.09L509.729 154.646L513.018 159.019L513.449 164.641L512.789 169.92L514.924 175.476L518.89 177.135L520.928 180.852L519.395 183.603L520.463 184.619L525.083 183.928L527.859 189.846L532.603 190.099L533.604 194.86L539.514 195.106L541.252 197.043L541.68 201.197L544.333 203.162L548.521 200.306L550.61 199.733L553.244 202.689L557.775 200.564L562.939 201.507L565.96 199.717L564.269 190.613L565.395 186.918L566.046 181.665L570.016 179.456L568.671 177.771Z" fill="#B5B6B6"/>
<path fill-rule="evenodd" clip-rule="evenodd" d="M73.726 196.532L73.8914 190.922L68.7309 185.664L66.0303 187.555L63.2407 185.454L63.0871 178.394L59.126 180.075L54.8202 176.386L52.7424 171.38L48.7996 168.371L45.0961 168.287L41.3186 164.489L37.1094 163.644L33.4468 158.463L28.1231 157.442L26.1742 152.278L22.1046 148.336L18.384 148.011L17.4606 146.005L15.9444 146.114L14.8814 151.458L8.44734 156.497L7.20177 165.098L5.60293 167.414L1.86191 167.885L0 171.338L0.35327 176.308L4.05348 176.542L6.41792 185.781L12.0627 186.252L14.3638 194.107L19.5125 191.995L22.3977 199.479H26.798L31.2338 193.79L39.578 202.408L42.8219 200.083L51.5506 206.241L56.0786 203.132L63.1365 209.981L69.8175 204.894L76.1796 206.035L76.9849 202.462L77.1363 199.788L73.726 196.532Z" fill="#B5B6B6"/>
<path fill-rule="evenodd" clip-rule="evenodd" d="M167.949 180.172L165.344 180.241L162.95 183.806L160.334 181.77L159.075 183.332L155.49 183.53L154.965 181.591L154.113 181.393L151.384 184.888L149.605 180.557L147.428 180.363L145.889 184.991L144.074 181.991L143.131 181.942L142.89 186.875L140.457 187.853L139.159 183.324L136.354 183.185L134.653 184.721L128.628 183.37L126.242 179.092L124.409 177.744L120.469 180.016L115.779 176.001L112.6 174.712L109.771 176.914L111.169 180.188L110.991 184.404L107.534 188.063L106.136 186.656L102.685 187.559L97.6105 192.578L92.3888 197.65L87.6556 203.138L87.1037 208.914L88.9087 211.412L86.0632 217.942H90.2638L98.5147 210.133L114.042 210.131L116.421 207.271L126.267 208.211L131.898 198.321L145.047 197.142L147.969 189.074L154.038 192.731L156.594 190.164L161.768 192.291L165.08 188.728L168.175 190.164L171.49 187.252L170.164 183.01L167.949 180.172Z" fill="#B5B6B6"/>
<path fill-rule="evenodd" clip-rule="evenodd" d="M86.1291 209.179L86.7444 202.744L91.7031 196.998L96.9484 191.9L102.203 186.707L106.419 185.604L107.516 186.707L110.06 184.01L110.216 180.362L108.616 176.616L112.013 173.969L111.255 169.336L106.296 165.618L100.218 165.879L98.572 161.874L96.2645 160.551L95.413 159L91.6451 158.915L89.5201 154.359L92.8015 152.077L92.5299 151.313H88.3518L88.6514 147.801L89.7864 145.039L88.4023 140.04L87.6743 135.271L83.5746 131.551L79.3247 130.918L76.2891 131.885L75.5826 136.15L74.1019 140.443L74.3972 143.348L77.6292 145.056L75.8618 147.828L71.4797 147.386L66.5769 148.386L60.6894 148.139L56.1334 149.577L53.2493 148.718L50.2223 153.34L47.4327 156.303L47.2684 162.283L45.9111 167.359L49.126 167.434L53.5145 170.777L55.604 175.812L59.2957 178.978L63.9966 176.976L64.1727 184.97L66.0497 186.387L68.8436 184.431L74.8449 190.543L74.6806 196.139L78.1038 199.406L77.9234 202.585L77.0483 206.471L85.2873 217.356L87.8257 211.527L86.1291 209.179Z" fill="#FFD400"/>
<path fill-rule="evenodd" clip-rule="evenodd" d="M77.5 169.45V175.95H79.5V169.45H86V167.45H79.5V160.95H77.5V167.45H71V169.45H77.5Z" fill="#303030"/>
<path fill-rule="evenodd" clip-rule="evenodd" d="M322.064 270.072L323.974 268.053L326.649 269.891L327.068 267.993L331.763 267.392L333.202 265.188H337.407L338.963 268.23L343.064 267.518V264.177L347.146 263.427V260.154L349.104 259.84L348.547 257.865L343.739 255.145L346.041 250.715L350.332 249.363L351.221 248.199L350.902 241.975L349.667 240.969L348.013 238.086L351.456 237.722L351.24 233.296L348.795 231.555L346.096 228.321L345.603 225.942L348.749 222.954L349.376 216.798L347.461 214.461L347.863 210.044L345.159 209.159L340.892 213.274L338.208 212.198L337.34 216.053L337.075 220.818L332.071 223.011L327.028 221.465L322.54 220.517L318.528 224.893L315.584 221.403L308.371 221.754L309.691 215.834L304.232 211.394L306.281 209.625L306.822 206.704L302.877 206.351L297.904 210.758L298.217 206.801L295.956 206.185L290.357 207.323L287.813 201.609L284.135 201.016L281.162 204.005L276.264 206.136L274.543 202.934L273.214 203.053L270.422 206.38L267.431 204.742L261.895 204.427L259.573 206.475L260.468 207.491L257.253 209.326L258.863 213.004L261.309 214.847L260.728 220.367L264.317 223.045L263.498 229.429L267.823 230.551L272.347 229.59L273.565 231.319L275.216 229.084L279.493 234.615L278.108 239.4L277.787 243.957L280.258 247.673L283.762 248.344L285.688 246.761L289.021 248.917L286.753 251.515L290.509 253.142L293.162 256.358L291.314 262.206L285.791 262.12L284.235 263.277L284.573 265.318L289.526 269.281V273.898L287.547 277.433H290.784L293.265 279.339L298.527 274.351L299.264 270.841L302.134 272.612L301.786 275.581L301.524 278.72L302.776 278.429L304.644 276.045L310.191 278.911L313.05 276.178L311.909 271.761L314.642 270.843L315.278 272.526L321.151 271.989L322.064 270.072Z" fill="#B5B6B6"/>
<path fill-rule="evenodd" clip-rule="evenodd" d="M288.583 269.736L283.703 265.835L283.21 262.862L285.485 261.17L290.626 261.251L292.109 256.564L289.931 253.924L285.191 251.87L287.592 249.117L285.757 247.931L284.019 249.356L279.691 248.525L276.826 244.211L277.174 239.234L278.455 234.814L275.232 230.648L273.55 232.93L271.937 230.646L267.8 231.523L262.46 230.134L263.313 223.475L259.734 220.802L260.318 215.28L258.1 213.612L256.046 208.924L258.993 207.246L257.596 205.662L251.6 205.492L250.077 202.357L246.371 203.704L243.195 202.108L240.001 203.13L239.491 207.486L233.083 207.856L231.655 205.746L229.148 208.03L224.443 207.488L221.324 204.435L218.949 204.7L218.788 208.566L214.418 211.171L217.591 215.768L221.074 212.042L224.608 215.863V220.924L226.297 225.041L224.093 230.447L221.683 235.724L227.56 238.899L231.739 247.3L234.393 243.306L237.643 245.683L236.866 248.543L235.946 255.234L238.107 258.612L236.203 263.053L241.551 266.535L246.116 266.209L248.834 272.001L247.73 278.488L248.706 281.108L247.372 283.49L252.691 288.224L250.704 291.954L243.676 289.838L240.362 285.933L236.517 291.338L231.235 287.802L230.989 285.213L223.292 292.321L221.934 288.23L222.219 282.95L217.624 284.17L214.373 287.437L213.476 295.679L218.053 299.127L214.418 303.613L215.072 308.716L207.751 310.634L206.969 317.218L201.797 319.328L198.428 323.594L200.111 327.895L199.035 332.56L191.966 331.573L188.731 332.742L191.092 336.095L192.319 341.012L199.454 344.363L206.458 345.829L207.755 337.544L210.869 339.627L211.989 343.561L223.043 335.508H231.178L236.986 338.837L238.057 345.556L240 341.882L239.411 336.234L235.572 333.386L237.313 331.162L234.343 328.779L234.672 322.33L236.44 316.125L240.177 318.692L240.017 324.751L241.808 326.658L242.362 324.433L241.843 320.766L245.95 319.974L245.648 316.641L249.725 314.036L251.588 316.629L253.639 312.821L255.729 315.883L260.561 308.685L263.917 305.608L260.306 300.242L253.984 298.18L252.266 294.727L252.423 292.699L254.987 288.159L260.304 289.822L264.005 296.927L266.485 301.36L270.498 296.222L270.173 291.19L274.767 288.965L275.083 282.097L280.534 280.936L285.607 277.433H286.461L288.583 273.65V269.736Z" fill="#FFD400"/>
<path fill-rule="evenodd" clip-rule="evenodd" d="M255.5 245.45V251.95H257.5V245.45H264V243.45H257.5V236.95H255.5V243.45H249V245.45H255.5Z" fill="#303030"/>
<path fill-rule="evenodd" clip-rule="evenodd" d="M218.04 203.85L221.662 203.448L224.873 206.583L228.83 207.042L231.822 204.313L233.562 206.879L238.648 206.585L239.133 202.414L243.274 201.087L246.43 202.675L249.678 201.494L248.686 199.228L242.684 194.798L246.183 191.187L248.986 193.257L251.239 190.531L249.603 189.112L249.343 184.446L249.416 180.877L246.058 180.631L245.559 176.216L242.698 176.136L241.604 171.906L240.904 167.767L238.796 167.149L239.249 163.819L237.427 164.428L236.898 160.488L241.334 157.213L241.106 152.734L233.883 146.517L236.438 143.862L236.506 142.064L235.421 140.882L236.504 138.626L234.303 136.235L236.923 134.061L235.725 133.071L232.354 132.913L227.451 135.752H220.15L217.409 131.527L218.349 126.983L217.594 121.678L214.544 122.093L211.459 125.111L207.268 125.559L202.941 123.872L200.005 126.736L196.619 125.079L192.236 126.304L186.913 126.22L183.753 127.33L181.525 129.498L182.668 131.338L182.209 133.818L181.194 137.473L180.128 139.305L183.04 144.832L184.061 151.565L183.696 155.674L179.933 157.319L176.256 154.447L173.812 156.366L171.387 157.097L168.65 161.178L168.982 173.786L165.91 179.28L168.398 179.212L171.012 182.562L172.434 187.122L175.936 189.758L180.244 189.276L185.227 195.232L189.476 195.485V199.051L196.579 199.74L200.918 206.157L204.467 203.711L211.995 205.22L213.715 210.151L213.877 210.387L217.866 208.015L218.04 203.85Z" fill="#B5B6B6"/>
</svg>
