<svg width="16" height="15" viewBox="0 0 16 15" fill="none" xmlns="http://www.w3.org/2000/svg">
<path fill-rule="evenodd" clip-rule="evenodd" d="M6.75 0C6.28587 0 5.84075 0.184374 5.51256 0.512563C5.18437 0.840752 5 1.28587 5 1.75V3H1.75C1.28587 3 0.840752 3.18437 0.512563 3.51256C0.184374 3.84075 0 4.28587 0 4.75L0 13.25C0 14.216 0.784 15 1.75 15H14.25C14.7141 15 15.1592 14.8156 15.4874 14.4874C15.8156 14.1592 16 13.7141 16 13.25V4.75C16 4.28587 15.8156 3.84075 15.4874 3.51256C15.1592 3.18437 14.7141 3 14.25 3H11V1.75C11 1.28587 10.8156 0.840752 10.4874 0.512563C10.1592 0.184374 9.71413 0 9.25 0H6.75ZM9.5 3V1.75C9.5 1.6837 9.47366 1.62011 9.42678 1.57322C9.37989 1.52634 9.3163 1.5 9.25 1.5H6.75C6.6837 1.5 6.62011 1.52634 6.57322 1.57322C6.52634 1.62011 6.5 1.6837 6.5 1.75V3H9.5ZM5 4.5H1.75C1.6837 4.5 1.62011 4.52634 1.57322 4.57322C1.52634 4.62011 1.5 4.6837 1.5 4.75V6C1.5 6.53043 1.71071 7.03914 2.08579 7.41421C2.46086 7.78929 2.96957 8 3.5 8H12.5C13.0304 8 13.5391 7.78929 13.9142 7.41421C14.2893 7.03914 14.5 6.53043 14.5 6V4.75C14.5 4.6837 14.4737 4.62011 14.4268 4.57322C14.3799 4.52634 14.3163 4.5 14.25 4.5H5ZM3.5 9.5C2.78478 9.50124 2.08651 9.28233 1.5 8.873V13.25C1.5 13.388 1.612 13.5 1.75 13.5H14.25C14.3163 13.5 14.3799 13.4737 14.4268 13.4268C14.4737 13.3799 14.5 13.3163 14.5 13.25V8.873C13.9135 9.28233 13.2152 9.50124 12.5 9.5H3.5Z" fill="#303030"/>
</svg>
