<svg width="19" height="14" viewBox="0 0 19 14" fill="none" xmlns="http://www.w3.org/2000/svg">
<path d="M7.53906 5.57727H14.0776" stroke="black" stroke-width="1.5" stroke-linecap="round" stroke-linejoin="round"/>
<path d="M7.53906 8.19202H14.0776" stroke="black" stroke-width="1.5" stroke-linecap="round" stroke-linejoin="round"/>
<path d="M2.30762 12.7693C2.65444 12.7693 2.98706 12.6315 3.2323 12.3863C3.47754 12.1411 3.61532 11.8084 3.61532 11.4616V1.65385C3.61532 1.48044 3.68421 1.31413 3.80683 1.19151C3.92945 1.06889 4.09576 1 4.26917 1H17.3462C17.5196 1 17.6859 1.06889 17.8085 1.19151C17.9312 1.31413 18 1.48044 18 1.65385V11.4616C18 11.8084 17.8623 12.1411 17.617 12.3863C17.3718 12.6315 17.0392 12.7693 16.6923 12.7693H2.30762Z" stroke="black" stroke-width="1.5" stroke-linecap="round" stroke-linejoin="round"/>
<path d="M2.3077 12.7693C1.96088 12.7693 1.62826 12.6315 1.38302 12.3863C1.13778 12.141 1 11.8084 1 11.4616V3.61536" stroke="black" stroke-width="1.5" stroke-linecap="round" stroke-linejoin="round"/>
</svg>
