<svg width="50" height="50" viewBox="0 0 50 50" fill="none" xmlns="http://www.w3.org/2000/svg">
<rect x="0.5" y="0.5" width="49" height="49" stroke="white"/>
<path fill-rule="evenodd" clip-rule="evenodd" d="M25.4999 17.5332C32.2963 17.5332 37.6178 24.7085 37.8411 25.014C38.0529 25.3035 38.0529 25.6969 37.8411 25.9867C37.6178 26.292 32.2963 33.4673 25.4999 33.4673C18.7034 33.4673 13.3817 26.292 13.1586 25.9865C12.9471 25.6966 12.9471 25.3035 13.1586 25.0137C13.3817 24.7085 18.7034 17.5332 25.4999 17.5332ZM14.874 25.4997C16.1576 27.0566 20.4936 31.8189 25.4999 31.8189C30.5169 31.8189 34.8438 27.059 36.1257 25.5008C34.8416 23.9431 30.5059 19.1815 25.4999 19.1815C20.4828 19.1815 16.1559 23.9414 14.874 25.4997ZM20.5552 25.4998C20.5552 22.7731 22.7736 20.5547 25.5003 20.5547C28.2269 20.5547 30.4453 22.7731 30.4453 25.4998C30.4453 28.2264 28.2269 30.4448 25.5003 30.4448C22.7736 30.4448 20.5552 28.2264 20.5552 25.4998ZM22.2036 25.4998C22.2036 27.3176 23.6824 28.7964 25.5003 28.7964C27.3181 28.7964 28.7969 27.3176 28.7969 25.4998C28.7969 23.6819 27.3181 22.2031 25.5003 22.2031C23.6824 22.2031 22.2036 23.6819 22.2036 25.4998Z" fill="white"/>
</svg>
