<svg width="19" height="19" viewBox="0 0 19 19" fill="none" xmlns="http://www.w3.org/2000/svg">
<path fill-rule="evenodd" clip-rule="evenodd" d="M4.42188 2.6875C3.46401 2.6875 2.6875 3.46401 2.6875 4.42188C2.6875 5.37974 3.46401 6.15625 4.42188 6.15625C5.37974 6.15625 6.15625 5.37974 6.15625 4.42188C6.15625 3.46401 5.37974 2.6875 4.42188 2.6875ZM0.6875 4.42188C0.6875 2.35944 2.35944 0.6875 4.42188 0.6875C6.48431 0.6875 8.15625 2.35944 8.15625 4.42188C8.15625 6.48431 6.48431 8.15625 4.42188 8.15625C2.35944 8.15625 0.6875 6.48431 0.6875 4.42188ZM17.2384 1.76164C17.6289 2.15217 17.6289 2.78533 17.2384 3.17586L3.17586 17.2384C2.78533 17.6289 2.15217 17.6289 1.76164 17.2384C1.37112 16.8478 1.37112 16.2147 1.76164 15.8241L15.8241 1.76164C16.2147 1.37112 16.8478 1.37112 17.2384 1.76164ZM12.8438 14.5781C12.8438 13.6203 13.6203 12.8438 14.5781 12.8438C15.536 12.8438 16.3125 13.6203 16.3125 14.5781C16.3125 15.536 15.536 16.3125 14.5781 16.3125C13.6203 16.3125 12.8438 15.536 12.8438 14.5781ZM14.5781 10.8438C12.5157 10.8438 10.8438 12.5157 10.8438 14.5781C10.8438 16.6406 12.5157 18.3125 14.5781 18.3125C16.6406 18.3125 18.3125 16.6406 18.3125 14.5781C18.3125 12.5157 16.6406 10.8438 14.5781 10.8438Z" fill="white"/>
</svg>
