<svg width="22" height="22" viewBox="0 0 22 22" fill="none" xmlns="http://www.w3.org/2000/svg">
<path fill-rule="evenodd" clip-rule="evenodd" d="M9.92131 0.192103C10.2724 -0.0640343 10.7488 -0.0640343 11.1 0.192103L13.4624 1.9154L16.3866 1.90983C16.8212 1.909 17.2066 2.18901 17.3401 2.60262L18.2385 5.38543L20.6074 7.09972C20.9595 7.35452 21.1067 7.80758 20.9717 8.22067L20.0627 11L20.9717 13.7793C21.1067 14.1924 20.9595 14.6455 20.6074 14.9003L18.2385 16.6146L17.3401 19.3974C17.2066 19.811 16.8212 20.091 16.3866 20.0901L13.4624 20.0846L11.1 21.8079C10.7488 22.064 10.2724 22.064 9.92131 21.8079L7.55886 20.0846L4.63468 20.0901C4.20005 20.091 3.81466 19.811 3.68114 19.3974L2.78281 16.6146L0.413826 14.9003C0.0617162 14.6455 -0.0854923 14.1924 0.0496034 13.7793L0.958519 11L0.0496034 8.22068C-0.0854923 7.80758 0.0617161 7.35452 0.413825 7.09972L2.78281 5.38543L3.68114 2.60262C3.81466 2.18901 4.20006 1.909 4.63469 1.90983L7.55886 1.9154L9.92131 0.192103ZM10.5106 2.23778L8.47331 3.72392C8.30165 3.84914 8.09456 3.91642 7.88208 3.91602L5.36033 3.91122L4.58563 6.31106C4.52035 6.51326 4.39237 6.68942 4.22023 6.81398L2.17727 8.29235L2.9611 10.6892C3.02715 10.8911 3.02715 11.1089 2.9611 11.3108L2.17727 13.7077L4.22023 15.186C4.39237 15.3106 4.52035 15.4867 4.58563 15.6889L5.36034 18.0888L7.88209 18.084C8.09457 18.0836 8.30165 18.1509 8.4733 18.2761L10.5106 19.7622L12.548 18.2761C12.7196 18.1509 12.9267 18.0836 13.1392 18.084L15.6609 18.0888L16.4356 15.6889C16.5009 15.4867 16.6289 15.3106 16.801 15.186L18.844 13.7077L18.0602 11.3108C17.9941 11.1089 17.9941 10.8911 18.0602 10.6892L18.844 8.29235L16.801 6.81398C16.6289 6.68942 16.5009 6.51326 16.4356 6.31106L15.6609 3.91122L13.1392 3.91602C12.9267 3.91642 12.7196 3.84914 12.548 3.72392L10.5106 2.23778ZM15.2177 7.79289C15.6083 8.18342 15.6083 8.81658 15.2177 9.20711L10.2177 14.2071C9.82722 14.5976 9.19405 14.5976 8.80353 14.2071L6.30353 11.7071C5.913 11.3166 5.913 10.6834 6.30353 10.2929C6.69405 9.90237 7.32722 9.90237 7.71774 10.2929L9.51063 12.0858L13.8035 7.79289C14.1941 7.40237 14.8272 7.40237 15.2177 7.79289Z" fill="black" fill-opacity="0.85"/>
</svg>
