<svg width="21" height="21" viewBox="0 0 21 21" fill="none" xmlns="http://www.w3.org/2000/svg">
<path d="M3.60096 0.0316061L3.70985 0.0654297L8.46079 1.82672C10.0244 2.40639 10.9531 3.94594 10.8255 5.53325L17.7455 8.05241C18.2041 8.21933 18.4664 8.68686 18.3908 9.1515C19.7743 9.9188 20.7115 11.395 20.7115 13.0901C20.7115 13.8762 20.51 14.6151 20.1558 15.2582C20.1917 15.3624 20.2115 15.474 20.2115 15.5901V19.5901C20.2115 20.1424 19.7638 20.5901 19.2115 20.5901H1.21154C0.659257 20.5901 0.211542 20.1424 0.211542 19.5901V15.5901C0.211542 15.0378 0.659257 14.5901 1.21154 14.5901L11.9678 14.5908C11.8019 14.1214 11.7115 13.6163 11.7115 13.0901C11.7115 12.8096 11.7372 12.535 11.7863 12.2687L7.23 10.61L6.84453 11.6709C6.57784 12.4037 5.79954 12.8023 5.06006 12.6104L4.92199 12.5674L1.63284 11.3703C0.900299 11.1036 0.501713 10.3255 0.693565 9.58588L0.736519 9.44779L1.122 8.387L0.65825 8.21824C0.176342 8.04284 -0.088804 7.53552 0.0270151 7.04842L0.0605801 6.93653L1.42866 3.17778C1.44651 3.12873 1.46781 3.08192 1.49217 3.03753L2.36694 0.682075C2.55409 0.176985 3.09036 -0.0971649 3.60096 0.0316061ZM13.3839 16.5909L2.21154 16.5901V18.5901H18.2115L18.2118 17.1222C17.6092 17.4217 16.93 17.5901 16.2115 17.5901C15.1403 17.5901 14.1566 17.2158 13.3839 16.5909ZM17.7054 11.0853L16.975 13.0929C16.7861 13.6119 16.2123 13.8795 15.6933 13.6906L13.715 12.97L13.7115 13.0901C13.7115 13.6534 13.8978 14.1731 14.2121 14.5911H18.211C18.5253 14.1731 18.7115 13.6534 18.7115 13.0901C18.7115 12.2694 18.3161 11.5411 17.7054 11.0853ZM15.7412 10.6343C15.317 10.715 14.9308 10.903 14.6119 11.1688L15.4375 11.4691L15.7412 10.6343ZM3.001 9.071L2.78654 9.66111L5.13554 10.5161L5.35 9.926L3.001 9.071ZM2.96554 4.80111L2.28154 6.68011L12.582 10.4294C13.0486 9.79399 13.6781 9.28559 14.4089 8.96572L2.96554 4.80111ZM3.90954 2.27211L3.666 2.928L8.77266 4.78604C8.64567 4.34792 8.33833 3.96766 7.90343 3.76026L7.76559 3.702L3.90954 2.27211Z" fill="black" fill-opacity="0.85"/>
</svg>
