<svg width="20" height="22" viewBox="0 0 20 22" fill="none" xmlns="http://www.w3.org/2000/svg">
<path d="M19 0C19.6352 0 20.1095 0.584559 19.9785 1.20614L16.4437 17.9854C16.0769 19.7327 14.5963 21.0258 12.8163 21.1525L4.28665 21.7624C1.96875 21.9289 0 20.0966 0 17.775V17C0 15.6177 1.11772 14.5 2.5 14.5L12.1363 14.5002L15.0214 0.794008C15.1189 0.331255 15.5271 0 16 0H19ZM17.767 2H16.811L14.0926 14.9152C13.9054 15.7861 13.1752 16.4215 12.3006 16.4932L12.135 16.5H2.5C2.22228 16.5 2 16.7223 2 17V17.775C2 18.9356 2.98345 19.8509 4.14367 19.7675L12.674 19.1575C13.563 19.0943 14.303 18.448 14.4865 17.5739L17.767 2ZM10.5 8.5C10.5 10.1496 8.23083 11 5.5 11C2.8545 11 0.642274 10.2019 0.506593 8.6523L0.5 8.5V5.5L0.501234 5.43378C0.561318 3.82891 2.80806 3 5.5 3C8.22873 3 10.5 3.85172 10.5 5.5V5.493V8.5ZM8.50095 7.57417C7.66093 7.85679 6.61892 8 5.5 8C4.38153 8 3.33991 7.8569 2.50006 7.57451L2.5 8.354L2.5476 8.39082C2.62765 8.44673 2.73837 8.50686 2.87589 8.5661L3.0222 8.62485C3.64705 8.85904 4.53728 9 5.5 9C6.46272 9 7.35295 8.85904 7.9778 8.62485C8.18441 8.54742 8.34566 8.46536 8.4524 8.39082L8.5 8.353L8.50095 7.57417ZM5.5 5C4.53815 5 3.64794 5.14119 3.02269 5.37566C2.91931 5.41443 2.82726 5.45435 2.74769 5.49392L2.735 5.5L2.87626 5.56551L3.02269 5.62434C3.64794 5.85881 4.53815 6 5.5 6C6.46185 6 7.35206 5.85881 7.97731 5.62434C8.08069 5.58557 8.17274 5.54565 8.25231 5.50608L8.264 5.5L8.12374 5.43449L7.97731 5.37566C7.35206 5.14119 6.46185 5 5.5 5Z" fill="black" fill-opacity="0.85"/>
</svg>
