<svg width="25" height="17" viewBox="0 0 25 17" fill="none" xmlns="http://www.w3.org/2000/svg">
<path fill-rule="evenodd" clip-rule="evenodd" d="M12.4999 0.533203C19.2963 0.533203 24.6178 7.70846 24.8411 8.01398C25.0529 8.30353 25.0529 8.69694 24.8411 8.98674C24.6178 9.29196 19.2963 16.4673 12.4999 16.4673C5.70343 16.4673 0.381739 9.29201 0.158643 8.98649C-0.052881 8.69665 -0.052881 8.30353 0.158643 8.01369C0.381739 7.70846 5.70343 0.533203 12.4999 0.533203ZM1.87403 8.49968C3.15757 10.0566 7.49357 14.8189 12.4999 14.8189C17.5169 14.8189 21.8438 10.059 23.1257 8.5008C21.8416 6.94308 17.5059 2.18155 12.4999 2.18155C7.48283 2.18155 3.15591 6.94142 1.87403 8.49968ZM7.55518 8.49976C7.55518 5.7731 9.77359 3.55469 12.5003 3.55469C15.2269 3.55469 17.4453 5.7731 17.4453 8.49976C17.4453 11.2264 15.2269 13.4448 12.5003 13.4448C9.77359 13.4448 7.55518 11.2264 7.55518 8.49976ZM9.20357 8.49976C9.20357 10.3176 10.6824 11.7964 12.5003 11.7964C14.3181 11.7964 15.7969 10.3176 15.7969 8.49976C15.7969 6.68194 14.3181 5.20308 12.5003 5.20308C10.6824 5.20308 9.20357 6.68194 9.20357 8.49976Z" fill="#303030"/>
</svg>
