<svg width="30" height="30" viewBox="0 0 30 30" fill="none" xmlns="http://www.w3.org/2000/svg">
<path fill-rule="evenodd" clip-rule="evenodd" d="M15 2.72727C11.3664 2.72727 8.10042 4.30595 5.85206 6.81818H8.18182C8.93493 6.81818 9.54545 7.4287 9.54545 8.18182C9.54545 8.93493 8.93493 9.54545 8.18182 9.54545H3.18794C2.43482 9.54545 1.8243 8.93493 1.8243 8.18182V3.18794C1.8243 2.43482 2.43482 1.8243 3.18794 1.8243C3.94105 1.8243 4.55157 2.43482 4.55157 3.18794V4.23779C7.25173 1.61599 10.9367 0 15 0C15.7531 0 16.3636 0.610521 16.3636 1.36364C16.3636 2.11675 15.7531 2.72727 15 2.72727ZM20.4545 3.18794C20.4545 2.43482 21.0651 1.8243 21.8182 1.8243H26.8121C27.5652 1.8243 28.1757 2.43482 28.1757 3.18794C28.1757 3.94105 27.5652 4.55157 26.8121 4.55157H25.7622C28.384 7.25173 30 10.9367 30 15C30 15.7531 29.3895 16.3636 28.6364 16.3636C27.8832 16.3636 27.2727 15.7531 27.2727 15C27.2727 11.3664 25.694 8.10042 23.1818 5.85206V8.18182C23.1818 8.93493 22.5713 9.54545 21.8182 9.54545C21.0651 9.54545 20.4545 8.93493 20.4545 8.18182V3.18794ZM1.36364 13.6364C2.11675 13.6364 2.72727 14.2469 2.72727 15C2.72727 18.6336 4.30595 21.8996 6.81818 24.148V21.8182C6.81818 21.0651 7.4287 20.4545 8.18182 20.4545C8.93493 20.4545 9.54545 21.0651 9.54545 21.8182V26.8121C9.54545 27.5652 8.93493 28.1757 8.18182 28.1757H3.18794C2.43482 28.1757 1.8243 27.5652 1.8243 26.8121C1.8243 26.059 2.43482 25.4485 3.18794 25.4485H4.2378C1.616 22.7483 0 19.0633 0 15C0 14.2469 0.610521 13.6364 1.36364 13.6364ZM20.4545 21.8182C20.4545 21.0651 21.0651 20.4545 21.8182 20.4545H26.8121C27.5652 20.4545 28.1757 21.0651 28.1757 21.8182V26.8121C28.1757 27.5652 27.5652 28.1757 26.8121 28.1757C26.059 28.1757 25.4485 27.5652 25.4485 26.8121V25.7622C22.7483 28.384 19.0633 30 15 30C14.2469 30 13.6364 29.3895 13.6364 28.6364C13.6364 27.8832 14.2469 27.2727 15 27.2727C18.6336 27.2727 21.8996 25.694 24.148 23.1818H21.8182C21.0651 23.1818 20.4545 22.5713 20.4545 21.8182Z" fill="#303030"/>
</svg>
