<svg width="20" height="19" viewBox="0 0 20 19" fill="none" xmlns="http://www.w3.org/2000/svg">
<path fill-rule="evenodd" clip-rule="evenodd" d="M2.5 19H17.5C18.8807 19 20 17.9367 20 16.625V2.375C20 1.06332 18.8807 0 17.5 0H2.5C1.11929 0 0 1.06332 0 2.375V16.625C0 17.9367 1.11929 19 2.5 19ZM2 2.375C2 2.11266 2.22386 1.9 2.5 1.9H17.5C17.7761 1.9 18 2.11266 18 2.375V4.75H2V2.375ZM5.5 6.65H2V16.625C2 16.8873 2.22386 17.1 2.5 17.1H5.5V6.65ZM18 6.65H7.5V11.4H18V6.65ZM18 13.3H7.5V17.1H17.5C17.7761 17.1 18 16.8873 18 16.625V13.3Z" fill="#303030"/>
</svg>
