<svg width="30" height="30" viewBox="0 0 30 30" fill="none" xmlns="http://www.w3.org/2000/svg">
<path fill-rule="evenodd" clip-rule="evenodd" d="M5.25 3C4.00736 3 3 4.00736 3 5.25C3 6.49264 4.00736 7.5 5.25 7.5C6.49264 7.5 7.5 6.49264 7.5 5.25C7.5 4.00736 6.49264 3 5.25 3ZM2.23517e-08 5.25C2.23517e-08 2.3505 2.3505 2.23517e-08 5.25 2.23517e-08C8.1495 2.23517e-08 10.5 2.35051 10.5 5.25C10.5 8.1495 8.1495 10.5 5.25 10.5C2.35051 10.5 2.23517e-08 8.1495 2.23517e-08 5.25ZM29.5607 0.43934C30.1464 1.02513 30.1464 1.97487 29.5607 2.56066L2.56066 29.5607C1.97487 30.1464 1.02513 30.1464 0.43934 29.5607C-0.146447 28.9749 -0.146447 28.0251 0.43934 27.4393L27.4393 0.43934C28.0251 -0.146447 28.9749 -0.146447 29.5607 0.43934ZM24.75 22.5C23.5074 22.5 22.5 23.5074 22.5 24.75C22.5 25.9926 23.5074 27 24.75 27C25.9926 27 27 25.9926 27 24.75C27 23.5074 25.9926 22.5 24.75 22.5ZM19.5 24.75C19.5 21.8505 21.8505 19.5 24.75 19.5C27.6495 19.5 30 21.8505 30 24.75C30 27.6495 27.6495 30 24.75 30C21.8505 30 19.5 27.6495 19.5 24.75Z" fill="#303030"/>
</svg>
