<svg width="21" height="21" viewBox="0 0 21 21" fill="none" xmlns="http://www.w3.org/2000/svg">
<path fill-rule="evenodd" clip-rule="evenodd" d="M6.5 4.5C6.5 2.01472 8.51472 0 11 0C13.4853 0 15.5 2.01472 15.5 4.5C15.5 6.98528 13.4853 9 11 9C8.51472 9 6.5 6.98528 6.5 4.5ZM11 2C9.61929 2 8.5 3.11929 8.5 4.5C8.5 5.88071 9.61929 7 11 7C12.3807 7 13.5 5.88071 13.5 4.5C13.5 3.11929 12.3807 2 11 2Z" fill="black" fill-opacity="0.85"/>
<path d="M10 12.5C5.46775 12.5 2 15.7415 2 19.5C2 20.0523 1.55228 20.5 1 20.5C0.447715 20.5 0 20.0523 0 19.5C0 14.4219 4.59115 10.5 10 10.5C10.5523 10.5 11 10.9477 11 11.5C11 12.0523 10.5523 12.5 10 12.5Z" fill="black" fill-opacity="0.85"/>
<path fill-rule="evenodd" clip-rule="evenodd" d="M14.925 12C13.1715 12 12 13.601 12 15.2432C12 16.6947 12.7263 17.9882 13.5286 18.9324C14.3282 19.8734 15.3329 20.6204 16.1389 20.9325C16.3712 21.0225 16.6288 21.0225 16.8611 20.9325C17.6671 20.6204 18.6718 19.8734 19.4714 18.9324C20.2737 17.9882 21 16.6947 21 15.2432C21 13.601 19.8285 12 18.075 12C17.48 12 16.9438 12.1933 16.5 12.5082C16.0562 12.1933 15.52 12 14.925 12ZM14 15.2432C14 14.4076 14.5522 14 14.925 14C15.1666 14 15.4439 14.139 15.6441 14.4703C15.8252 14.77 16.1499 14.9531 16.5 14.9531C16.8501 14.9531 17.1748 14.77 17.3559 14.4703C17.556 14.139 17.8334 14 18.075 14C18.4478 14 19 14.4076 19 15.2432C19 16.0348 18.5888 16.8825 17.9473 17.6374C17.4613 18.2094 16.9176 18.6401 16.5 18.8867C16.0824 18.6401 15.5387 18.2094 15.0527 17.6374C14.4112 16.8825 14 16.0348 14 15.2432Z" fill="black" fill-opacity="0.85"/>
</svg>
