<svg width="20" height="21" viewBox="0 0 20 21" fill="none" xmlns="http://www.w3.org/2000/svg">
<path d="M9.65175 0H9.5322C8.84053 0 8.20324 0.374981 7.86737 0.979617L6.53835 3.3718C6.03427 4.27918 5.28288 5.02477 4.37158 5.52186L1.04229 7.33786C0.399797 7.68824 0 8.36173 0 9.09365V19C0 20.1046 0.895427 21 2 21H14.9935C15.8886 21 16.6747 20.4053 16.9181 19.5439L19.6029 10.0439L19.6376 9.90219C19.892 8.67535 18.9554 7.5 17.6782 7.5H12.506L12.6287 6.97292C12.8811 5.87932 12.9621 4.75322 12.8688 3.63481L12.8229 3.08333C12.754 2.25591 12.394 1.47974 11.8069 0.892672C11.2353 0.321104 10.4601 0 9.65175 0ZM8.28667 4.34307L9.587 2H9.65175C9.92967 2 10.1962 2.11039 10.3927 2.30691C10.6453 2.55948 10.8001 2.89339 10.8298 3.24939L10.8758 3.80092C10.9518 4.71303 10.8857 5.63134 10.6799 6.52318L10.4302 7.60538C10.2065 8.57469 10.9426 9.5 11.9374 9.5H17.6782L14.9935 19H1.99993V9.09369L5.32931 7.27764C6.5731 6.59918 7.59867 5.58153 8.28667 4.34307Z" fill="black" fill-opacity="0.85"/>
</svg>
