<svg width="37" height="30" viewBox="0 0 37 30" fill="none" xmlns="http://www.w3.org/2000/svg">
<path d="M12.6882 0.349541L12.8452 0.488202L18.3333 5.97558L23.8215 0.488202C24.4223 -0.112662 25.3677 -0.158882 26.0215 0.349541L26.1785 0.488202L36.1785 10.4892C36.7793 11.09 36.8255 12.0355 36.3172 12.6894L36.1785 12.8464L19.5118 29.5147C19.2615 29.765 18.9514 29.9191 18.6274 29.9769L18.4317 30H18.2349C17.8418 29.9769 17.4552 29.8151 17.1548 29.5147L0.488155 12.8464C-0.112651 12.2456 -0.158867 11.3001 0.349508 10.6462L0.488155 10.4892L10.4882 0.488202C11.0389 -0.0625901 11.8792 -0.147327 12.519 0.233991L12.6882 0.349541ZM11.6667 4.02539L4.025 11.6678L18.3333 25.9775L19.3083 25.0024L17.9882 23.6808C17.3373 23.0299 17.3373 21.9745 17.9882 21.3235C18.589 20.7227 19.5343 20.6765 20.1882 21.1849L20.3452 21.3235L21.6667 22.6438L22.6417 21.6688L21.3215 20.3471C20.6706 19.6962 20.6706 18.6408 21.3215 17.9899C21.9223 17.389 22.8677 17.3428 23.5215 17.8512L23.6785 17.9899L25 19.3102L25.975 18.3351L21.6667 14.0264L17.8452 17.8469C17.3536 18.3386 16.6151 18.4687 15.9922 18.1926L15.8092 18.0976L11.6425 15.5973L11.4807 15.487L11.3215 15.3467C11.2595 15.2847 11.2035 15.2191 11.1533 15.1504L11.0182 14.9315L10.9361 14.7446L10.8958 14.6214L10.8599 14.4651L10.8377 14.2895L10.8332 14.1489L10.8378 14.0461L10.8574 13.8835L10.9081 13.6731L10.9375 13.5871C10.9957 13.4305 11.0773 13.2822 11.1828 13.1464L11.3215 12.9894L15.975 8.33414L11.6667 4.02539ZM25 4.02539L15.1883 13.8363L16.4067 14.5681L20.4882 10.4892C21.089 9.8883 22.0343 9.84208 22.6882 10.3505L22.8452 10.4892L28.3333 15.9765L32.6417 11.6678L25 4.02539Z" fill="#303030"/>
</svg>
